g PAFA00002_02_geo
v -0.02583799 1.474633 0.05792788
v -0.02939784 1.467865 0.05835504
v -0.0340638 1.475324 0.0576798
v -0.04179725 1.467416 0.05749674
v -0.02974786 1.45793 0.05783657
v -0.04141132 1.457842 0.05700417
v -0.05121777 1.46611 0.0559985
v -0.0503438 1.471775 0.05621633
v -0.04212383 1.474508 0.05712202
v -0.0515949 1.457119 0.05524482
v -0.05740288 1.465021 0.05475409
v -0.05503664 1.468477 0.05545256
v -0.05865323 1.459505 0.05401921
v -0.01762308 1.466693 0.05792136
v -0.01750476 1.457293 0.05723146
v -0.009849208 1.460011 0.05681442
v -0.01140907 1.465632 0.05733828
v -0.0137961 1.469168 0.05777395
v -0.0181199 1.472068 0.05797578
v -0.04138649 1.448447 0.05549284
v -0.05053176 1.448283 0.05410573
v -0.05795444 1.453482 0.053479
v -0.05537194 1.448079 0.05319204
v -0.04938159 1.44248 0.05322507
v -0.04181122 1.441836 0.05402404
v -0.04818619 1.440795 0.05309376
v -0.04275537 1.438898 0.0532313
v -0.05080383 1.442671 0.05307147
v -0.0350647 1.437793 0.05349172
v -0.03044402 1.441376 0.05457927
v -0.02722551 1.43846 0.05395691
v -0.01968042 1.442156 0.05471956
v -0.02025257 1.44051 0.05450992
v -0.01806998 1.442181 0.0546506
v -0.01865456 1.448036 0.0557638
v -0.01349064 1.447554 0.05529974
v -0.01053595 1.45341 0.05608346
v -0.03013314 1.448397 0.05622666
v 0.02583799 1.474633 0.05792788
v 0.0340638 1.475324 0.0576798
v 0.02939784 1.467865 0.05835504
v 0.04179725 1.467416 0.05749674
v 0.02974786 1.45793 0.05783657
v 0.04141132 1.457842 0.05700417
v 0.05121777 1.46611 0.0559985
v 0.0503438 1.471775 0.05621633
v 0.04212383 1.474508 0.05712202
v 0.0515949 1.457119 0.05524482
v 0.05740288 1.465021 0.05475409
v 0.05503664 1.468477 0.05545256
v 0.05865323 1.459505 0.05401921
v 0.01762308 1.466693 0.05792136
v 0.01750476 1.457293 0.05723146
v 0.009849208 1.460011 0.05681442
v 0.01140907 1.465632 0.05733828
v 0.0137961 1.469168 0.05777395
v 0.0181199 1.472068 0.05797578
v 0.04138649 1.448447 0.05549284
v 0.05053176 1.448283 0.05410573
v 0.05795444 1.453482 0.053479
v 0.05537194 1.448079 0.05319204
v 0.04938159 1.44248 0.05322507
v 0.04181122 1.441836 0.05402404
v 0.04818619 1.440795 0.05309376
v 0.04275537 1.438898 0.0532313
v 0.05080383 1.442671 0.05307147
v 0.0350647 1.437793 0.05349172
v 0.03044402 1.441376 0.05457927
v 0.02722551 1.43846 0.05395691
v 0.01968042 1.442156 0.05471956
v 0.02025257 1.44051 0.05450992
v 0.01806998 1.442181 0.0546506
v 0.01865456 1.448036 0.0557638
v 0.01349064 1.447554 0.05529974
v 0.01053595 1.45341 0.05608346
v 0.03013314 1.448397 0.05622666
vt 0.3707623 0.369968
vt 0.4447586 0.3312839
vt 0.3620264 0.28056
vt 0.4494998 0.1958929
vt 0.5605972 0.3264705
vt 0.5614855 0.200358
vt 0.465075 0.093336
vt 0.398639 0.103128
vt 0.3704111 0.1898952
vt 0.5701503 0.08976045
vt 0.477566 0.024822
vt 0.436981 0.051952
vt 0.5438027 0.01299279
vt 0.459471 0.45859
vt 0.5693946 0.4578214
vt 0.5398284 0.5416254
vt 0.4742921 0.5286583
vt 0.4319737 0.4982363
vt 0.3979867 0.4516893
vt 0.6731347 0.1994409
vt 0.6740797 0.1008247
vt 0.6124727 0.02375731
vt 0.6774607 0.04576944
vt 0.7432407 0.1139863
vt 0.7544091 0.1932132
vt 0.763577 0.1254072
vt 0.7944602 0.181565
vt 0.7409967 0.09627832
vt 0.8082092 0.265717
vt 0.7601377 0.316972
vt 0.8005722 0.351618
vt 0.7491829 0.4335677
vt 0.7700068 0.429356
vt 0.7492197 0.4525842
vt 0.679033 0.4453622
vt 0.6861213 0.5058278
vt 0.6149808 0.5315397
vt 0.6736199 0.321199
vt 0.3707623 0.369968
vt 0.3620264 0.28056
vt 0.4447586 0.3312839
vt 0.4494998 0.1958929
vt 0.5605972 0.3264705
vt 0.5614855 0.200358
vt 0.465075 0.093336
vt 0.398639 0.103128
vt 0.3704111 0.1898952
vt 0.5701503 0.08976045
vt 0.477566 0.024822
vt 0.436981 0.051952
vt 0.5438027 0.01299279
vt 0.459471 0.45859
vt 0.5693946 0.4578214
vt 0.5398284 0.5416254
vt 0.4742921 0.5286583
vt 0.4319737 0.4982363
vt 0.3979867 0.4516893
vt 0.6731347 0.1994409
vt 0.6740797 0.1008247
vt 0.6124727 0.02375731
vt 0.6774607 0.04576944
vt 0.7432407 0.1139863
vt 0.7544091 0.1932132
vt 0.763577 0.1254072
vt 0.7944602 0.181565
vt 0.7409967 0.09627832
vt 0.8082092 0.265717
vt 0.7601377 0.316972
vt 0.8005722 0.351618
vt 0.7491829 0.4335677
vt 0.7700068 0.429356
vt 0.7492197 0.4525842
vt 0.679033 0.4453622
vt 0.6861213 0.5058278
vt 0.6149808 0.5315397
vt 0.6736199 0.321199
vn 0.01348451 0.0485944 0.9987276
vn -0.01810372 -0.008577637 0.9997993
vn -0.05977386 0.0538067 0.9967607
vn -0.1018133 -0.01706939 0.9946571
vn -0.01592961 -0.1082159 0.9939998
vn -0.1089966 -0.1088892 0.9880602
vn -0.1632933 -0.05416872 0.9850893
vn -0.1437835 0.007292557 0.9895823
vn -0.09701763 0.04805505 0.9941218
vn -0.1711176 -0.1141694 0.9786134
vn -0.1887929 -0.07757006 0.9789485
vn -0.1686717 -0.04502692 0.9846433
vn -0.2016101 -0.09570604 0.9747788
vn 0.04595282 -0.04359676 0.9979918
vn 0.05686357 -0.1170577 0.9914958
vn 0.08602535 -0.08924125 0.9922881
vn 0.08141197 -0.0695621 0.9942501
vn 0.06419228 -0.03987296 0.9971407
vn 0.0003593013 -0.01009054 0.999949
vn -0.09807582 -0.176806 0.9793471
vn -0.1573824 -0.1551952 0.9752668
vn -0.1923262 -0.1330741 0.9722664
vn -0.1774421 -0.1477814 0.9729722
vn -0.1327886 -0.1838933 0.9739355
vn -0.0804012 -0.2160493 0.9730664
vn -0.1138229 -0.1781201 0.9774035
vn -0.08398622 -0.2343111 0.968527
vn -0.156771 -0.1714355 0.9726421
vn -0.05477443 -0.2274715 0.972243
vn -0.03118144 -0.2259637 0.9736366
vn -0.008052438 -0.2144258 0.9767071
vn 0.02031769 -0.191959 0.9811926
vn -0.04049441 -0.1124297 0.9928342
vn 0.06097665 -0.1788304 0.9819886
vn 0.04697881 -0.1699673 0.9843293
vn 0.07227372 -0.1718495 0.9824685
vn 0.08034983 -0.1481054 0.9857021
vn -0.02096713 -0.1872553 0.9820875
vn -0.01348439 0.04859481 0.9987276
vn 0.05977497 0.05380736 0.9967606
vn 0.01810406 -0.008577271 0.9997993
vn 0.1018136 -0.01706899 0.9946571
vn 0.01592943 -0.1082159 0.9939998
vn 0.1089966 -0.1088893 0.9880602
vn 0.1632944 -0.05416892 0.9850892
vn 0.1437855 0.007292405 0.989582
vn 0.0970185 0.04805542 0.9941217
vn 0.1711179 -0.1141696 0.9786133
vn 0.1887932 -0.07757016 0.9789484
vn 0.1686737 -0.04502711 0.9846429
vn 0.201609 -0.09570553 0.9747791
vn -0.04595301 -0.04359708 0.9979918
vn -0.05686381 -0.1170578 0.9914958
vn -0.08602513 -0.08924077 0.9922881
vn -0.08141176 -0.06956209 0.9942501
vn -0.06419087 -0.03987293 0.9971408
vn -0.0003590765 -0.01009052 0.999949
vn 0.0980758 -0.1768059 0.9793472
vn 0.1573821 -0.1551944 0.9752669
vn 0.192327 -0.1330746 0.9722661
vn 0.1774422 -0.1477814 0.9729722
vn 0.1327886 -0.1838933 0.9739355
vn 0.08040173 -0.2160498 0.9730663
vn 0.1138234 -0.1781203 0.9774033
vn 0.08398664 -0.2343131 0.9685265
vn 0.1567719 -0.1714365 0.9726418
vn 0.05477282 -0.2274652 0.9722446
vn 0.03118119 -0.2259618 0.973637
vn 0.008052351 -0.2144209 0.9767082
vn -0.02031795 -0.1919584 0.9811927
vn 0.04049288 -0.1124258 0.9928347
vn -0.06097986 -0.1788357 0.9819874
vn -0.04697915 -0.1699681 0.9843291
vn -0.07227352 -0.1718498 0.9824684
vn -0.08034956 -0.1481048 0.9857022
vn 0.02096714 -0.1872553 0.9820875
g PAFA00002_02_geo_0
f 3/3/3 2/2/2 1/1/1
f 4/4/4 2/2/2 3/3/3
f 5/5/5 2/2/2 4/4/4
f 5/5/5 4/4/4 6/6/6
f 6/6/6 4/4/4 7/7/7
f 8/8/8 7/7/7 4/4/4
f 8/8/8 4/4/4 9/9/9
f 4/4/4 3/3/3 9/9/9
f 6/6/6 7/7/7 10/10/10
f 10/10/10 7/7/7 11/11/11
f 12/12/12 11/11/11 7/7/7
f 12/12/12 7/7/7 8/8/8
f 10/10/10 11/11/11 13/13/13
f 5/5/5 14/14/14 2/2/2
f 14/14/14 1/1/1 2/2/2
f 5/5/5 15/15/15 14/14/14
f 16/16/16 14/14/14 15/15/15
f 16/16/16 17/17/17 14/14/14
f 14/14/14 17/17/17 18/18/18
f 14/14/14 18/18/18 19/19/19
f 14/14/14 19/19/19 1/1/1
f 20/20/20 6/6/6 10/10/10
f 20/20/20 10/10/10 21/21/21
f 21/21/21 10/10/10 22/22/22
f 13/13/13 22/22/22 10/10/10
f 21/21/21 22/22/22 23/23/23
f 20/20/20 21/21/21 24/24/24
f 20/20/20 24/24/24 25/25/25
f 26/26/26 25/25/25 24/24/24
f 26/26/26 27/27/27 25/25/25
f 24/24/24 28/28/28 26/26/26
f 21/21/21 28/28/28 24/24/24
f 21/21/21 23/23/23 28/28/28
f 25/25/25 27/27/27 29/29/29
f 25/25/25 29/29/29 30/30/30
f 20/20/20 25/25/25 30/30/30
f 29/29/29 31/31/31 30/30/30
f 32/32/32 30/30/30 31/31/31
f 32/32/32 31/31/31 33/33/33
f 32/32/32 33/33/33 34/34/34
f 35/35/35 32/32/32 34/34/34
f 35/35/35 34/34/34 36/36/36
f 35/35/35 36/36/36 37/37/37
f 35/35/35 37/37/37 15/15/15
f 35/35/35 15/15/15 5/5/5
f 35/35/35 5/5/5 38/38/38
f 38/38/38 32/32/32 35/35/35
f 38/38/38 30/30/30 32/32/32
f 38/38/38 5/5/5 6/6/6
f 38/38/38 6/6/6 20/20/20
f 20/20/20 30/30/30 38/38/38
f 15/15/15 37/37/37 16/16/16
f 41/41/41 40/40/40 39/39/39
f 40/40/40 41/41/41 42/42/42
f 43/43/43 42/42/42 41/41/41
f 43/43/43 44/44/44 42/42/42
f 44/44/44 45/45/45 42/42/42
f 42/42/42 45/45/45 46/46/46
f 42/42/42 46/46/46 47/47/47
f 40/40/40 42/42/42 47/47/47
f 44/44/44 48/48/48 45/45/45
f 49/49/49 45/45/45 48/48/48
f 49/49/49 50/50/50 45/45/45
f 45/45/45 50/50/50 46/46/46
f 49/49/49 48/48/48 51/51/51
f 52/52/52 43/43/43 41/41/41
f 52/52/52 41/41/41 39/39/39
f 52/52/52 53/53/53 43/43/43
f 54/54/54 53/53/53 52/52/52
f 54/54/54 52/52/52 55/55/55
f 55/55/55 52/52/52 56/56/56
f 56/56/56 52/52/52 57/57/57
f 52/52/52 39/39/39 57/57/57
f 58/58/58 48/48/48 44/44/44
f 58/58/58 59/59/59 48/48/48
f 60/60/60 48/48/48 59/59/59
f 60/60/60 51/51/51 48/48/48
f 60/60/60 59/59/59 61/61/61
f 62/62/62 59/59/59 58/58/58
f 62/62/62 58/58/58 63/63/63
f 64/64/64 62/62/62 63/63/63
f 64/64/64 63/63/63 65/65/65
f 66/66/66 62/62/62 64/64/64
f 66/66/66 59/59/59 62/62/62
f 66/66/66 61/61/61 59/59/59
f 67/67/67 65/65/65 63/63/63
f 67/67/67 63/63/63 68/68/68
f 58/58/58 68/68/68 63/63/63
f 69/69/69 67/67/67 68/68/68
f 69/69/69 68/68/68 70/70/70
f 69/69/69 70/70/70 71/71/71
f 71/71/71 70/70/70 72/72/72
f 72/72/72 70/70/70 73/73/73
f 72/72/72 73/73/73 74/74/74
f 75/75/75 74/74/74 73/73/73
f 75/75/75 73/73/73 53/53/53
f 73/73/73 43/43/43 53/53/53
f 73/73/73 76/76/76 43/43/43
f 76/76/76 70/70/70 68/68/68
f 76/76/76 73/73/73 70/70/70
f 76/76/76 44/44/44 43/43/43
f 76/76/76 58/58/58 44/44/44
f 58/58/58 76/76/76 68/68/68
f 75/75/75 53/53/53 54/54/54
