g PABA00061_04_geo
v 0.02322541 0.08228177 0.00132004
v 0.02277792 0.08707783 0.001269213
v 0.02359618 0.08234232 0.000126202
v 0.02318684 0.0871966 8.175732E-05
v 0.02328433 0.08233784 -0.00109183
v 0.02291535 0.08723525 -0.001140045
v 0.02277792 0.08707783 0.001269213
v 0.02216516 0.09195033 0.001268983
v 0.02318684 0.0871966 8.175732E-05
v 0.02255234 0.09205072 8.159304E-05
v 0.02291535 0.08723525 -0.001140045
v 0.02226166 0.09204999 -0.001140703
v 0.02354992 0.07725782 0.001311081
v 0.02322541 0.08228177 0.00132004
v 0.02392006 0.07731011 0.000114068
v 0.02359618 0.08234232 0.000126202
v 0.0236072 0.0772996 -0.001100439
v 0.02328433 0.08233784 -0.00109183
v -0.02606909 0.07671122 -0.0005858906
v -0.02569216 0.07663461 0.0006084726
v -0.02625522 0.07487177 -0.0005877017
v -0.02587747 0.07480274 0.0006066139
v -0.02595071 0.07487179 -0.001804714
v -0.02576457 0.07671174 -0.001803178
v -0.02544151 0.08184894 -0.0005752511
v -0.02506538 0.08176446 0.00061886
v -0.02606909 0.07671122 -0.0005858906
v -0.02569216 0.07663461 0.0006084726
v -0.02576457 0.07671174 -0.001803178
v -0.02513816 0.08184159 -0.00179263
v -0.02468237 0.08704588 -0.0006629378
v -0.02430997 0.08693238 0.0005313735
v -0.02544151 0.08184894 -0.0005752511
v -0.02506538 0.08176446 0.00061886
v -0.02513816 0.08184159 -0.00179263
v -0.02437795 0.08704987 -0.001881544
v -0.02375904 0.0922242 -0.0007522337
v -0.02339009 0.09208971 0.0004413718
v -0.02468237 0.08704588 -0.0006629378
v -0.02430997 0.08693238 0.0005313735
v -0.02437795 0.08704987 -0.001881544
v -0.02345327 0.09223679 -0.001970896
v -0.0227466 0.09754247 -0.0007324454
v -0.02237967 0.09739901 0.000460742
v -0.02375904 0.0922242 -0.0007522337
v -0.02339009 0.09208971 0.0004413718
v -0.02345327 0.09223679 -0.001970896
v -0.02244012 0.09755618 -0.001951151
v -0.0216251 0.1030377 -0.0007400482
v -0.02125665 0.1029001 0.0004529264
v -0.0227466 0.09754247 -0.0007324454
v -0.02237967 0.09739901 0.000460742
v -0.02244012 0.09755618 -0.001951151
v -0.02132059 0.1030394 -0.001958803
v -0.02035857 0.1084999 -0.0006535582
v -0.01998899 0.1083702 0.0005387826
v -0.0216251 0.1030377 -0.0007400482
v -0.02125665 0.1029001 0.0004529264
v -0.02132059 0.1030394 -0.001958803
v -0.02006034 0.1084782 -0.001872429
v -0.0190183 0.1137507 -0.000637133
v -0.01865247 0.1136093 0.0005548197
v -0.02035857 0.1084999 -0.0006535582
v -0.01998899 0.1083702 0.0005387826
v -0.02006034 0.1084782 -0.001872429
v -0.01872159 0.1137201 -0.001856492
v -0.01759825 0.1188141 -0.0005405772
v -0.01723504 0.1186627 0.000651103
v -0.0190183 0.1137507 -0.000637133
v -0.01865247 0.1136093 0.0005548197
v -0.01872159 0.1137201 -0.001856492
v -0.01730452 0.1187726 -0.001760293
v -0.01599771 0.1237087 -0.0005187131
v -0.01564427 0.1235287 0.0006726725
v -0.01759825 0.1188141 -0.0005405772
v -0.01723504 0.1186627 0.000651103
v -0.01730452 0.1187726 -0.001760293
v -0.01570414 0.1236655 -0.001739251
v -0.01212967 0.1331096 -0.0004669922
v -0.01179036 0.1328935 0.0007231866
v -0.01414796 0.128437 -0.0004790208
v -0.01380377 0.1282329 0.0007117053
v -0.01385587 0.1283883 -0.001700157
v -0.01184295 0.1330486 -0.001688856
v -0.01414796 0.128437 -0.0004790208
v -0.01380377 0.1282329 0.0007117053
v -0.01599771 0.1237087 -0.0005187131
v -0.01564427 0.1235287 0.0006726725
v -0.01570414 0.1236655 -0.001739251
v -0.01385587 0.1283883 -0.001700157
v -0.009810057 0.1376599 -0.0003861336
v -0.009478942 0.1374262 0.0008031575
v -0.01212967 0.1331096 -0.0004669922
v -0.01179036 0.1328935 0.0007231866
v -0.01184295 0.1330486 -0.001688856
v -0.009532318 0.13758 -0.001608638
v -0.007079539 0.1420677 -0.0003874491
v -0.006771859 0.1418022 0.0008001344
v -0.009810057 0.1376599 -0.0003861336
v -0.009478942 0.1374262 0.0008031575
v -0.009532318 0.13758 -0.001608638
v -0.006829035 0.1419462 -0.001611853
v -0.003254329 0.1458917 -0.0003234107
v -0.00304747 0.1455478 0.000860229
v -0.005282364 0.1440515 -0.0003518451
v -0.004998846 0.1437548 0.000833061
v -0.006771859 0.1418022 0.0008001344
v -0.007079539 0.1420677 -0.0003874491
v -0.00313233 0.1456635 -0.001551081
v -0.005070129 0.1438847 -0.001578557
v -0.006829035 0.1419462 -0.001611853
v 0.002156841 0.1466683 -0.0002078129
v 0.002028856 0.1462839 0.0009741852
v -0.0005096927 0.1467722 -0.0002600813
v -0.0004621873 0.146374 0.0009224838
v -0.00304747 0.1455478 0.000860229
v -0.003254329 0.1458917 -0.0003234107
v 0.002047088 0.1464166 -0.001436851
v -0.0004955766 0.1464977 -0.001488692
v -0.00313233 0.1456635 -0.001551081
v 0.006003638 0.1430771 0.001170493
v 0.004252356 0.1449366 0.001045456
v 0.006348475 0.1433276 -9.323861E-06
v 0.004526243 0.1452487 -0.0001355238
v 0.002028856 0.1462839 0.0009741852
v 0.002156841 0.1466683 -0.0002078129
v 0.00613915 0.1431548 -0.001235439
v 0.004329697 0.1450417 -0.001362552
v 0.002047088 0.1464166 -0.001436851
v 0.009374294 0.1391788 -2.592658E-05
v 0.009019849 0.1389543 0.001155968
v 0.006348475 0.1433276 -9.323861E-06
v 0.006003638 0.1430771 0.001170493
v 0.009136036 0.1390538 -0.001251973
v 0.00613915 0.1431548 -0.001235439
v 0.0112669 0.1345075 0.00124351
v 0.009019849 0.1389543 0.001155968
v 0.01162857 0.1347134 5.905597E-05
v 0.009374294 0.1391788 -2.592658E-05
v 0.01136689 0.1346321 -0.00116623
v 0.009136036 0.1390538 -0.001251973
v 0.01763592 0.1157927 0.001285026
v 0.01626105 0.1205336 0.001307896
v 0.01801284 0.1159563 9.71929E-05
v 0.01663529 0.1207067 0.0001204749
v 0.0177313 0.1159228 -0.001126544
v 0.01635681 0.120666 -0.001103703
v 0.01877544 0.1109839 0.00131388
v 0.01763592 0.1157927 0.001285026
v 0.01915148 0.1111479 0.0001253358
v 0.01801284 0.1159563 9.71929E-05
v 0.0188646 0.1111355 -0.001098001
v 0.0177313 0.1159228 -0.001126544
v 0.01985472 0.1061822 0.001277386
v 0.01877544 0.1109839 0.00131388
v 0.0202322 0.1063381 8.822648E-05
v 0.01915148 0.1111479 0.0001253358
v 0.01994307 0.1063331 -0.001134755
v 0.0188646 0.1111355 -0.001098001
v 0.01314573 0.1299165 0.001258496
v 0.0112669 0.1345075 0.00124351
v 0.01351122 0.1301149 7.207405E-05
v 0.01162857 0.1347134 5.905597E-05
v 0.01324002 0.1300552 -0.00115248
v 0.01136689 0.1346321 -0.00116623
v 0.01485877 0.1252862 0.001242821
v 0.01314573 0.1299165 0.001258496
v 0.01522976 0.1254691 5.584199E-05
v 0.01351122 0.1301149 7.207405E-05
v 0.01495482 0.1254203 -0.001168798
v 0.01324002 0.1300552 -0.00115248
v 0.01626105 0.1205336 0.001307896
v 0.01485877 0.1252862 0.001242821
v 0.01663529 0.1207067 0.0001204749
v 0.01522976 0.1254691 5.584199E-05
v 0.01635681 0.120666 -0.001103703
v 0.01495482 0.1254203 -0.001168798
v 0.02080405 0.1014065 0.001226622
v 0.01985472 0.1061822 0.001277386
v 0.02118898 0.1015214 3.720018E-05
v 0.0202322 0.1063381 8.822648E-05
v 0.02090171 0.1015041 -0.001184808
v 0.01994307 0.1063331 -0.001134755
v 0.02147884 0.09666528 0.00123582
v 0.02080405 0.1014065 0.001226622
v 0.02186531 0.09677093 4.625908E-05
v 0.02118898 0.1015214 3.720018E-05
v 0.02157607 0.0967636 -0.0011752
v 0.02090171 0.1015041 -0.001184808
v 0.02216516 0.09195033 0.001268983
v 0.02147884 0.09666528 0.00123582
v 0.02255234 0.09205072 8.159304E-05
v 0.02186531 0.09677093 4.625908E-05
v 0.02226166 0.09204999 -0.001140703
v 0.02157607 0.0967636 -0.0011752
v 0.02373025 0.07529807 0.001331588
v 0.02354992 0.07725782 0.001311081
v 0.02410039 0.07535047 0.0001345005
v 0.02392006 0.07731011 0.000114068
v 0.02378755 0.07533984 -0.001079904
v 0.0236072 0.0772996 -0.001100439
vt 0.2495896 0.01514251
vt 0.01994741 0.0151425
vt 0.2495896 0.06114817
vt 0.01994741 0.06114815
vt 0.2495896 0.1071538
vt 0.01994741 0.1071538
vt 0.2495896 0.01514251
vt 0.01994741 0.0151425
vt 0.2495896 0.06114817
vt 0.01994741 0.06114815
vt 0.2495896 0.1071538
vt 0.01994741 0.1071538
vt 0.2495896 0.01514251
vt 0.01994741 0.0151425
vt 0.2495896 0.06114817
vt 0.01994741 0.06114815
vt 0.2495896 0.1071538
vt 0.01994741 0.1071538
vt 0.4155154 0.06114817
vt 0.4155154 0.01514251
vt 0.3330719 0.06114816
vt 0.3330719 0.01514251
vt 0.3330719 0.1071538
vt 0.4155154 0.1071538
vt 0.2495896 0.06114817
vt 0.2495896 0.01514251
vt 0.01994741 0.06114815
vt 0.01994741 0.0151425
vt 0.01994741 0.1071538
vt 0.2495896 0.1071538
vt 0.2495896 0.06114817
vt 0.2495896 0.01514251
vt 0.01994741 0.06114815
vt 0.01994741 0.0151425
vt 0.01994741 0.1071538
vt 0.2495896 0.1071538
vt 0.2495896 0.06114817
vt 0.2495896 0.01514251
vt 0.01994741 0.06114815
vt 0.01994741 0.0151425
vt 0.01994741 0.1071538
vt 0.2495896 0.1071538
vt 0.2495896 0.06114817
vt 0.2495896 0.01514251
vt 0.01994741 0.06114815
vt 0.01994741 0.0151425
vt 0.01994741 0.1071538
vt 0.2495896 0.1071538
vt 0.2495896 0.06114817
vt 0.2495896 0.01514251
vt 0.01994741 0.06114815
vt 0.01994741 0.0151425
vt 0.01994741 0.1071538
vt 0.2495896 0.1071538
vt 0.2495896 0.06114817
vt 0.2495896 0.01514251
vt 0.01994741 0.06114815
vt 0.01994741 0.0151425
vt 0.01994741 0.1071538
vt 0.2495896 0.1071538
vt 0.2495896 0.06114817
vt 0.2495896 0.01514251
vt 0.01994741 0.06114815
vt 0.01994741 0.0151425
vt 0.01994741 0.1071538
vt 0.2495896 0.1071538
vt 0.2495896 0.06114817
vt 0.2495896 0.01514251
vt 0.01994741 0.06114815
vt 0.01994741 0.0151425
vt 0.01994741 0.1071538
vt 0.2495896 0.1071538
vt 0.2495896 0.06114817
vt 0.2495896 0.01514251
vt 0.01994741 0.06114815
vt 0.01994741 0.0151425
vt 0.01994741 0.1071538
vt 0.2495896 0.1071538
vt 0.2495896 0.06114817
vt 0.2495896 0.01514251
vt 0.01994741 0.06114815
vt 0.01994741 0.0151425
vt 0.01994741 0.1071538
vt 0.2495896 0.1071538
vt 0.2495896 0.06114817
vt 0.2495896 0.01514251
vt 0.01994741 0.06114815
vt 0.01994741 0.0151425
vt 0.01994741 0.1071538
vt 0.2495896 0.1071538
vt 0.2495896 0.06114817
vt 0.2495896 0.01514251
vt 0.01994741 0.06114815
vt 0.01994741 0.0151425
vt 0.01994741 0.1071538
vt 0.2495896 0.1071538
vt 0.2495896 0.06114817
vt 0.2495896 0.01514251
vt 0.01994741 0.06114815
vt 0.01994741 0.0151425
vt 0.01994741 0.1071538
vt 0.2495896 0.1071538
vt 0.2495896 0.06114817
vt 0.2495896 0.01514251
vt 0.1347685 0.06114816
vt 0.1347685 0.01514251
vt 0.01994741 0.0151425
vt 0.01994741 0.06114815
vt 0.2495896 0.1071538
vt 0.1347685 0.1071538
vt 0.01994741 0.1071538
vt 0.2495896 0.06114817
vt 0.2495896 0.01514251
vt 0.1347685 0.06114816
vt 0.1347685 0.01514251
vt 0.01994741 0.0151425
vt 0.01994741 0.06114815
vt 0.2495896 0.1071538
vt 0.1347685 0.1071538
vt 0.01994741 0.1071538
vt 0.2495896 0.01514251
vt 0.1347685 0.01514251
vt 0.2495896 0.06114817
vt 0.1347685 0.06114816
vt 0.01994741 0.0151425
vt 0.01994741 0.06114815
vt 0.2495896 0.1071538
vt 0.1347685 0.1071538
vt 0.01994741 0.1071538
vt 0.2495896 0.06114817
vt 0.2495896 0.01514251
vt 0.01994741 0.06114815
vt 0.01994741 0.0151425
vt 0.2495896 0.1071538
vt 0.01994741 0.1071538
vt 0.2495896 0.01514251
vt 0.01994741 0.0151425
vt 0.2495896 0.06114817
vt 0.01994741 0.06114815
vt 0.2495896 0.1071538
vt 0.01994741 0.1071538
vt 0.2495896 0.01514251
vt 0.01994741 0.0151425
vt 0.2495896 0.06114817
vt 0.01994741 0.06114815
vt 0.2495896 0.1071538
vt 0.01994741 0.1071538
vt 0.2495896 0.01514251
vt 0.01994741 0.0151425
vt 0.2495896 0.06114817
vt 0.01994741 0.06114815
vt 0.2495896 0.1071538
vt 0.01994741 0.1071538
vt 0.2495896 0.01514251
vt 0.01994741 0.0151425
vt 0.2495896 0.06114817
vt 0.01994741 0.06114815
vt 0.2495896 0.1071538
vt 0.01994741 0.1071538
vt 0.2495896 0.01514251
vt 0.01994741 0.0151425
vt 0.2495896 0.06114817
vt 0.01994741 0.06114815
vt 0.2495896 0.1071538
vt 0.01994741 0.1071538
vt 0.2495896 0.01514251
vt 0.01994741 0.0151425
vt 0.2495896 0.06114817
vt 0.01994741 0.06114815
vt 0.2495896 0.1071538
vt 0.01994741 0.1071538
vt 0.2495896 0.01514251
vt 0.01994741 0.0151425
vt 0.2495896 0.06114817
vt 0.01994741 0.06114815
vt 0.2495896 0.1071538
vt 0.01994741 0.1071538
vt 0.2495896 0.01514251
vt 0.01994741 0.0151425
vt 0.2495896 0.06114817
vt 0.01994741 0.06114815
vt 0.2495896 0.1071538
vt 0.01994741 0.1071538
vt 0.2495896 0.01514251
vt 0.01994741 0.0151425
vt 0.2495896 0.06114817
vt 0.01994741 0.06114815
vt 0.2495896 0.1071538
vt 0.01994741 0.1071538
vt 0.2495896 0.01514251
vt 0.01994741 0.0151425
vt 0.2495896 0.06114817
vt 0.01994741 0.06114815
vt 0.2495896 0.1071538
vt 0.01994741 0.1071538
vt 0.3306732 0.01514251
vt 0.2616613 0.0151425
vt 0.3306732 0.06114816
vt 0.2616613 0.06114815
vt 0.3306732 0.1071538
vt 0.2616613 0.1071538
vn 0.9954219 0.08223407 0.04871028
vn 0.9954218 0.08223604 0.04871123
vn 0.9967324 0.07588944 0.02766444
vn 0.9927883 0.1038666 0.0598594
vn 0.9954221 0.08223407 0.04870829
vn 0.9954225 0.08222898 0.04870831
vn 0.9954218 0.08223604 0.04871123
vn 0.9873018 0.1501163 0.05196461
vn 0.9927883 0.1038666 0.0598594
vn 0.9893377 0.137838 0.0470262
vn 0.9954225 0.08222898 0.04870831
vn 0.9873018 0.1501163 0.05196461
vn 0.9954219 0.08223507 0.04871026
vn 0.9954219 0.08223407 0.04871028
vn 0.9970826 0.07202554 0.02527084
vn 0.9967324 0.07588944 0.02766444
vn 0.9954221 0.08223308 0.04870831
vn 0.9954221 0.08223407 0.04870829
vn -0.9926509 0.1157078 0.03543974
vn -0.9921412 0.117925 0.04182611
vn -0.9942444 0.1005575 0.03696333
vn -0.9474841 0.09553741 0.3051991
vn -0.9654425 0.09790797 -0.2415262
vn -0.9921412 0.117925 0.04182711
vn -0.9904494 0.1332225 0.03552018
vn -0.992141 0.117927 0.04182607
vn -0.9926509 0.1157078 0.03543974
vn -0.9921412 0.117925 0.04182611
vn -0.9921412 0.117925 0.04182711
vn -0.9921414 0.117924 0.04182613
vn -0.9864069 0.1605192 0.03514352
vn -0.9847585 0.1687666 0.04205324
vn -0.9904494 0.1332225 0.03552018
vn -0.992141 0.117927 0.04182607
vn -0.9921414 0.117924 0.04182613
vn -0.9847585 0.1687666 0.04205324
vn -0.9828011 0.1813399 0.03489887
vn -0.9788192 0.2002198 0.04272026
vn -0.9864069 0.1605192 0.03514352
vn -0.9847585 0.1687666 0.04205324
vn -0.9847585 0.1687666 0.04205324
vn -0.9788192 0.2002198 0.04272026
vn -0.9803746 0.1934798 0.03783024
vn -0.9776936 0.2056109 0.04288817
vn -0.9828011 0.1813399 0.03489887
vn -0.9788192 0.2002198 0.04272026
vn -0.9788192 0.2002198 0.04272026
vn -0.9776936 0.2056109 0.04288817
vn -0.9764767 0.2124544 0.03682844
vn -0.9729074 0.2270692 0.04348365
vn -0.9803746 0.1934798 0.03783024
vn -0.9776936 0.2056109 0.04288817
vn -0.9776936 0.2056109 0.04288817
vn -0.9729074 0.2270692 0.04348365
vn -0.9709608 0.2358186 0.04030801
vn -0.9642457 0.2613404 0.04394677
vn -0.9764767 0.2124544 0.03682844
vn -0.9729074 0.2270692 0.04348365
vn -0.9729074 0.2270692 0.04348365
vn -0.9642457 0.2613404 0.04394677
vn -0.9654127 0.2579347 0.03805152
vn -0.9515629 0.304269 0.04414076
vn -0.9709608 0.2358186 0.04030801
vn -0.9642457 0.2613404 0.04394677
vn -0.9642457 0.2613404 0.04394677
vn -0.951563 0.304269 0.04413977
vn -0.9562664 0.2895289 0.04156497
vn -0.951563 0.304269 0.04413977
vn -0.9654127 0.2579347 0.03805152
vn -0.9515629 0.304269 0.04414076
vn -0.951563 0.304269 0.04413977
vn -0.951563 0.304269 0.04413977
vn -0.9406198 0.3369025 0.0416065
vn -0.9346249 0.3528162 0.04468845
vn -0.9562664 0.2895289 0.04156497
vn -0.951563 0.304269 0.04413977
vn -0.951563 0.304269 0.04413977
vn -0.9346288 0.3528055 0.04468976
vn -0.9042094 0.4246551 0.04553377
vn -0.9104534 0.4110397 0.0460527
vn -0.9239348 0.3799268 0.04472229
vn -0.9104534 0.4110397 0.0460537
vn -0.910463 0.4110184 0.04605437
vn -0.910463 0.4110183 0.04605537
vn -0.9239348 0.3799268 0.04472229
vn -0.9104534 0.4110397 0.0460537
vn -0.9406198 0.3369025 0.0416065
vn -0.9346249 0.3528162 0.04468845
vn -0.9346288 0.3528055 0.04468976
vn -0.910463 0.4110184 0.04605437
vn -0.870335 0.4897825 0.05128304
vn -0.8733469 0.4847277 0.04800189
vn -0.9042094 0.4246551 0.04553377
vn -0.9104534 0.4110397 0.0460527
vn -0.910463 0.4110183 0.04605537
vn -0.8733364 0.4847468 0.04800121
vn -0.8153712 0.5766954 0.05091331
vn -0.8295837 0.5561972 0.04935246
vn -0.870335 0.4897825 0.05128304
vn -0.8733469 0.4847277 0.04800189
vn -0.8733364 0.4847468 0.04800121
vn -0.8295738 0.5562121 0.04934984
vn -0.4959004 0.8664921 0.05722059
vn -0.6211757 0.7822596 0.04701645
vn -0.7078984 0.7038295 0.05919322
vn -0.6726635 0.6637101 0.3271278
vn -0.8295837 0.5561972 0.04935246
vn -0.8153712 0.5766954 0.05091331
vn -0.6211857 0.7822517 0.04701798
vn -0.6907112 0.6909118 -0.2134458
vn -0.8295738 0.5562121 0.04934984
vn 0.2898101 0.9556105 0.05309098
vn 0.1723856 0.9845697 0.03009722
vn -0.1446331 0.9883255 0.04789498
vn -0.1414481 0.9364626 0.3209833
vn -0.6211757 0.7822596 0.04701645
vn -0.4959004 0.8664921 0.05722059
vn 0.1723915 0.9845686 0.03009599
vn -0.1440549 0.9656776 -0.2161363
vn -0.6211857 0.7822517 0.04701798
vn 0.7240642 0.6881925 0.04606656
vn 0.5841119 0.740626 0.332094
vn 0.7792773 0.6232023 0.0659235
vn 0.6230938 0.7806424 0.04849302
vn 0.1723856 0.9845697 0.03009722
vn 0.2898101 0.9556105 0.05309098
vn 0.7240607 0.6881963 0.0460657
vn 0.6082331 0.7612018 -0.2249985
vn 0.1723915 0.9845686 0.03009599
vn 0.8508904 0.5218447 0.06052703
vn 0.8658907 0.4971556 0.05540318
vn 0.7792773 0.6232023 0.0659235
vn 0.7240642 0.6881925 0.04606656
vn 0.8658904 0.4971564 0.05540115
vn 0.7240607 0.6881963 0.0460657
vn 0.8950124 0.4425027 0.05607316
vn 0.8658907 0.4971556 0.05540318
vn 0.9077715 0.4151365 0.06010495
vn 0.8508904 0.5218447 0.06052703
vn 0.895015 0.4424976 0.05607212
vn 0.8658904 0.4971564 0.05540115
vn 0.9557762 0.2889892 0.05456386
vn 0.9557762 0.2889892 0.05456386
vn 0.9657702 0.2543508 0.05092657
vn 0.9582475 0.2806169 0.05491662
vn 0.9557748 0.2889934 0.05456489
vn 0.9557748 0.2889934 0.05456489
vn 0.9709885 0.2331245 0.05323721
vn 0.9557762 0.2889892 0.05456386
vn 0.9730983 0.2246032 0.05131415
vn 0.9657702 0.2543508 0.05092657
vn 0.9709884 0.2331248 0.0532393
vn 0.9557748 0.2889934 0.05456489
vn 0.9709885 0.2331245 0.05323721
vn 0.9709885 0.2331245 0.05323721
vn 0.9772513 0.2064411 0.0486008
vn 0.9730983 0.2246032 0.05131415
vn 0.9709884 0.2331248 0.0532393
vn 0.9709884 0.2331248 0.0532393
vn 0.9325675 0.3567021 0.05550997
vn 0.8950124 0.4425027 0.05607316
vn 0.9302272 0.3624325 0.05761991
vn 0.9077715 0.4151365 0.06010495
vn 0.9325675 0.3567021 0.05550997
vn 0.895015 0.4424976 0.05607212
vn 0.9557762 0.2889892 0.05456386
vn 0.9325675 0.3567021 0.05550997
vn 0.947607 0.3149475 0.05337668
vn 0.9302272 0.3624325 0.05761991
vn 0.9557809 0.2889728 0.05456786
vn 0.9325675 0.3567021 0.05550997
vn 0.9557762 0.2889892 0.05456386
vn 0.9557762 0.2889892 0.05456386
vn 0.9582475 0.2806169 0.05491662
vn 0.947607 0.3149475 0.05337668
vn 0.9557748 0.2889934 0.05456489
vn 0.9557809 0.2889728 0.05456786
vn 0.9873018 0.1501163 0.05196461
vn 0.9709885 0.2331245 0.05323721
vn 0.9847655 0.1679504 0.04505197
vn 0.9772513 0.2064411 0.0486008
vn 0.9873018 0.1501163 0.05196461
vn 0.9709884 0.2331248 0.0532393
vn 0.9873018 0.1501163 0.05196461
vn 0.9873018 0.1501163 0.05196461
vn 0.9887624 0.1425053 0.04517949
vn 0.9847655 0.1679504 0.04505197
vn 0.9873018 0.1501163 0.05196461
vn 0.9873018 0.1501163 0.05196461
vn 0.9873018 0.1501163 0.05196461
vn 0.9873018 0.1501163 0.05196461
vn 0.9893377 0.137838 0.0470262
vn 0.9887624 0.1425053 0.04517949
vn 0.9873018 0.1501163 0.05196461
vn 0.9873018 0.1501163 0.05196461
vn 0.9503213 0.09056273 0.2978049
vn 0.9954219 0.08223507 0.04871026
vn 0.9953253 0.09190664 0.02967631
vn 0.9970826 0.07202554 0.02527084
vn 0.9646004 0.08616583 -0.2492417
vn 0.9954221 0.08223308 0.04870831
g PABA00061_04_geo_0
f 3/3/3 2/2/2 1/1/1
f 3/3/3 4/4/4 2/2/2
f 5/5/5 4/4/4 3/3/3
f 5/5/5 6/6/6 4/4/4
f 9/9/9 8/8/8 7/7/7
f 9/9/9 10/10/10 8/8/8
f 11/11/11 10/10/10 9/9/9
f 11/11/11 12/12/12 10/10/10
f 15/15/15 14/14/14 13/13/13
f 15/15/15 16/16/16 14/14/14
f 17/17/17 16/16/16 15/15/15
f 17/17/17 18/18/18 16/16/16
f 21/21/21 20/20/20 19/19/19
f 21/21/21 22/22/22 20/20/20
f 19/19/19 23/23/23 21/21/21
f 19/19/19 24/24/24 23/23/23
f 27/27/27 26/26/26 25/25/25
f 27/27/27 28/28/28 26/26/26
f 25/25/25 29/29/29 27/27/27
f 25/25/25 30/30/30 29/29/29
f 33/33/33 32/32/32 31/31/31
f 33/33/33 34/34/34 32/32/32
f 31/31/31 35/35/35 33/33/33
f 31/31/31 36/36/36 35/35/35
f 39/39/39 38/38/38 37/37/37
f 39/39/39 40/40/40 38/38/38
f 37/37/37 41/41/41 39/39/39
f 37/37/37 42/42/42 41/41/41
f 45/45/45 44/44/44 43/43/43
f 45/45/45 46/46/46 44/44/44
f 43/43/43 47/47/47 45/45/45
f 43/43/43 48/48/48 47/47/47
f 51/51/51 50/50/50 49/49/49
f 51/51/51 52/52/52 50/50/50
f 49/49/49 53/53/53 51/51/51
f 49/49/49 54/54/54 53/53/53
f 57/57/57 56/56/56 55/55/55
f 57/57/57 58/58/58 56/56/56
f 55/55/55 59/59/59 57/57/57
f 55/55/55 60/60/60 59/59/59
f 63/63/63 62/62/62 61/61/61
f 63/63/63 64/64/64 62/62/62
f 61/61/61 65/65/65 63/63/63
f 61/61/61 66/66/66 65/65/65
f 69/69/69 68/68/68 67/67/67
f 69/69/69 70/70/70 68/68/68
f 67/67/67 71/71/71 69/69/69
f 67/67/67 72/72/72 71/71/71
f 75/75/75 74/74/74 73/73/73
f 75/75/75 76/76/76 74/74/74
f 73/73/73 77/77/77 75/75/75
f 73/73/73 78/78/78 77/77/77
f 81/81/81 80/80/80 79/79/79
f 81/81/81 82/82/82 80/80/80
f 79/79/79 83/83/83 81/81/81
f 79/79/79 84/84/84 83/83/83
f 87/87/87 86/86/86 85/85/85
f 87/87/87 88/88/88 86/86/86
f 85/85/85 89/89/89 87/87/87
f 85/85/85 90/90/90 89/89/89
f 93/93/93 92/92/92 91/91/91
f 93/93/93 94/94/94 92/92/92
f 91/91/91 95/95/95 93/93/93
f 91/91/91 96/96/96 95/95/95
f 99/99/99 98/98/98 97/97/97
f 99/99/99 100/100/100 98/98/98
f 97/97/97 101/101/101 99/99/99
f 97/97/97 102/102/102 101/101/101
f 105/105/105 104/104/104 103/103/103
f 105/105/105 106/106/106 104/104/104
f 105/105/105 107/107/107 106/106/106
f 105/105/105 108/108/108 107/107/107
f 109/109/109 105/105/105 103/103/103
f 109/109/109 110/110/110 105/105/105
f 105/105/105 111/111/111 108/108/108
f 105/105/105 110/110/110 111/111/111
f 114/114/114 113/113/113 112/112/112
f 114/114/114 115/115/115 113/113/113
f 114/114/114 116/116/116 115/115/115
f 114/114/114 117/117/117 116/116/116
f 118/118/118 114/114/114 112/112/112
f 118/118/118 119/119/119 114/114/114
f 119/119/119 117/117/117 114/114/114
f 119/119/119 120/120/120 117/117/117
f 123/123/123 122/122/122 121/121/121
f 123/123/123 124/124/124 122/122/122
f 124/124/124 125/125/125 122/122/122
f 124/124/124 126/126/126 125/125/125
f 127/127/127 124/124/124 123/123/123
f 127/127/127 128/128/128 124/124/124
f 128/128/128 126/126/126 124/124/124
f 128/128/128 129/129/129 126/126/126
f 132/132/132 131/131/131 130/130/130
f 132/132/132 133/133/133 131/131/131
f 134/134/134 132/132/132 130/130/130
f 134/134/134 135/135/135 132/132/132
f 138/138/138 137/137/137 136/136/136
f 138/138/138 139/139/139 137/137/137
f 140/140/140 139/139/139 138/138/138
f 140/140/140 141/141/141 139/139/139
f 144/144/144 143/143/143 142/142/142
f 144/144/144 145/145/145 143/143/143
f 146/146/146 145/145/145 144/144/144
f 146/146/146 147/147/147 145/145/145
f 150/150/150 149/149/149 148/148/148
f 150/150/150 151/151/151 149/149/149
f 152/152/152 151/151/151 150/150/150
f 152/152/152 153/153/153 151/151/151
f 156/156/156 155/155/155 154/154/154
f 156/156/156 157/157/157 155/155/155
f 158/158/158 157/157/157 156/156/156
f 158/158/158 159/159/159 157/157/157
f 162/162/162 161/161/161 160/160/160
f 162/162/162 163/163/163 161/161/161
f 164/164/164 163/163/163 162/162/162
f 164/164/164 165/165/165 163/163/163
f 168/168/168 167/167/167 166/166/166
f 168/168/168 169/169/169 167/167/167
f 170/170/170 169/169/169 168/168/168
f 170/170/170 171/171/171 169/169/169
f 174/174/174 173/173/173 172/172/172
f 174/174/174 175/175/175 173/173/173
f 176/176/176 175/175/175 174/174/174
f 176/176/176 177/177/177 175/175/175
f 180/180/180 179/179/179 178/178/178
f 180/180/180 181/181/181 179/179/179
f 182/182/182 181/181/181 180/180/180
f 182/182/182 183/183/183 181/181/181
f 186/186/186 185/185/185 184/184/184
f 186/186/186 187/187/187 185/185/185
f 188/188/188 187/187/187 186/186/186
f 188/188/188 189/189/189 187/187/187
f 192/192/192 191/191/191 190/190/190
f 192/192/192 193/193/193 191/191/191
f 194/194/194 193/193/193 192/192/192
f 194/194/194 195/195/195 193/193/193
f 198/198/198 197/197/197 196/196/196
f 198/198/198 199/199/199 197/197/197
f 200/200/200 199/199/199 198/198/198
f 200/200/200 201/201/201 199/199/199
