g PAEA00017_02_geo
v 0.06684209 1.397207 -0.01422274
v 0.06477452 1.407795 -0.01318223
v 0.06684209 1.408792 -0.01422274
v 0.06289933 1.406186 -0.01223852
v 0.06172975 1.40391 -0.01164993
v 0.06114485 1.400759 -0.01135558
v 0.06684209 1.397207 -0.01422274
v 0.06684209 1.408792 -0.01422274
v 0.06890967 1.407795 -0.01526326
v 0.07078487 1.406186 -0.01620696
v 0.07195445 1.40391 -0.01679555
v 0.07253934 1.400759 -0.0170899
v -0.06684209 1.397207 -0.01422274
v -0.06684209 1.408792 -0.01422274
v -0.06477452 1.407795 -0.01318223
v -0.06289933 1.406186 -0.01223852
v -0.06172975 1.40391 -0.01164993
v -0.06114485 1.400759 -0.01135558
v -0.06684209 1.397207 -0.01422274
v -0.06890967 1.407795 -0.01526326
v -0.06684209 1.408792 -0.01422274
v -0.07078487 1.406186 -0.01620696
v -0.07195445 1.40391 -0.01679555
v -0.07253934 1.400759 -0.0170899
vt 0.0143414 0.1920795
vt 0.1363246 0.7147538
vt 0.01469089 0.7644461
vt 0.2467366 0.634819
vt 0.3153054 0.5220155
vt 0.3493647 0.3662974
vt 0.0143414 0.1920795
vt 0.01469089 0.7644461
vt 0.1363246 0.7147538
vt 0.2467366 0.634819
vt 0.3153054 0.5220155
vt 0.3493647 0.3662974
vt 0.0143414 0.1920795
vt 0.01469089 0.7644461
vt 0.1363246 0.7147538
vt 0.2467366 0.634819
vt 0.3153054 0.5220155
vt 0.3493647 0.3662974
vt 0.0143414 0.1920795
vt 0.1363246 0.7147538
vt 0.01469089 0.7644461
vt 0.2467366 0.634819
vt 0.3153054 0.5220155
vt 0.3493647 0.3662974
vn 0.4495376 0 0.8932614
vn 0.4495365 0 0.8932619
vn 0.4495355 0 0.8932624
vn 0.4495382 3.471457E-07 0.8932611
vn 0.4495361 3.840647E-07 0.8932621
vn 0.4495388 -1.063406E-06 0.8932608
vn 0.4495376 0 0.8932614
vn 0.4495355 0 0.8932624
vn 0.4495381 -1.761113E-07 0.8932611
vn 0.4495427 3.807829E-07 0.8932588
vn 0.4495358 1.117871E-06 0.8932623
vn 0.4495124 -1.063341E-06 0.8932741
vn -0.4495376 0 0.8932614
vn -0.4495355 0 0.8932624
vn -0.4495388 0 0.8932608
vn -0.4495423 3.471455E-07 0.893259
vn -0.4495362 3.840645E-07 0.8932621
vn -0.4495384 -1.063406E-06 0.893261
vn -0.4495376 0 0.8932614
vn -0.4495381 0 0.8932611
vn -0.4495355 0 0.8932624
vn -0.4495383 3.471354E-07 0.8932611
vn -0.4495355 3.84043E-07 0.8932624
vn -0.4495397 -1.063405E-06 0.8932604
g PAEA00017_02_geo_0
f 3/3/3 2/2/2 1/1/1
f 2/2/2 4/4/4 1/1/1
f 4/4/4 5/5/5 1/1/1
f 5/5/5 6/6/6 1/1/1
f 9/9/9 8/8/8 7/7/7
f 10/10/10 9/9/9 7/7/7
f 11/11/11 10/10/10 7/7/7
f 12/12/12 11/11/11 7/7/7
f 15/15/15 14/14/14 13/13/13
f 16/16/16 15/15/15 13/13/13
f 17/17/17 16/16/16 13/13/13
f 18/18/18 17/17/17 13/13/13
f 21/21/21 20/20/20 19/19/19
f 20/20/20 22/22/22 19/19/19
f 22/22/22 23/23/23 19/19/19
f 23/23/23 24/24/24 19/19/19
