g PAHA00001_02_geo
v -0.4274409 1.050907 0.002944747
v -0.4294623 1.048827 0.002169359
v -0.4295859 1.05065 0.005029696
v -0.4323653 1.049057 0.003909482
v -0.4323819 1.051297 0.005906961
v -0.4321701 1.048196 0.001042008
v -0.4274376 1.050448 -2.022505E-05
v -0.4302165 1.048855 -0.001138184
v -0.4287279 1.050954 -0.002682619
v -0.4263109 1.053273 0.001486759
v -0.4270674 1.0533 -0.001821173
v -0.4268115 1.055758 -0.0001195872
v -0.4276393 1.053398 0.004607678
v -0.4272679 1.056248 0.002805619
v -0.4290695 1.05597 0.005189036
v -0.4305423 1.053627 0.006347823
v -0.4349158 1.049227 0.001678534
v -0.4335874 1.049102 -0.00144242
v -0.4362622 1.051093 -0.0008137738
v -0.43672 1.051584 0.002110212
v -0.4344621 1.051373 -0.003198345
v -0.43504 1.051048 0.004538023
v -0.4364644 1.054043 0.003811804
v -0.4339132 1.053873 0.006045083
v -0.4348037 1.056389 0.00467326
v -0.4315645 1.050723 -0.003631697
v -0.4329894 1.053715 -0.004357201
v -0.4296186 1.05347 -0.004054506
v -0.4311498 1.056046 -0.003916383
v -0.4296186 1.05347 -0.004054506
v -0.4284917 1.056295 -0.002547454
v -0.4311664 1.058286 -0.001918861
v -0.4286159 1.058116 0.0003120923
v -0.4313616 1.059146 0.0009486139
v -0.4284917 1.056295 -0.002547454
v -0.4286159 1.058116 0.0003120923
v -0.4299425 1.058241 0.00343269
v -0.4333136 1.058486 0.003130005
v -0.4319672 1.05662 0.005622332
v -0.4299425 1.058241 0.00343269
v -0.4319672 1.05662 0.005622332
v -0.4360924 1.056895 0.002010528
v -0.4340694 1.058516 -0.0001787698
v -0.4360907 1.056436 -0.0009541308
v -0.4339458 1.056692 -0.003037543
v -0.4358925 1.053945 -0.002617086
v -0.4372191 1.05407 0.0005035686
vt 0.7529 0.7562
vt 0.7281 0.7404
vt 0.7283 0.7865
vt 0.7005 0.7715
vt 0.6953 0.8102
vt 0.7065 0.7274
vt 0.7503 0.7111
vt 0.7169 0.6877
vt 0.7279 0.666
vt 0.7813 0.7428
vt 0.7743 0.6896
vt 0.8104 0.7267
vt 0.7657 0.7903
vt 0.8076 0.7783
vt 0.7803 0.8216
vt 0.732 0.8257
vt 0.6819 0.7495
vt 0.6928 0.6986
vt 0.6621 0.7289
vt 0.6553 0.7712
vt 0.6666 0.6902
vt 0.6693 0.7998
vt 0.6445 0.8122
vt 0.679 0.8431
vt 0.6348 0.8358
vt 0.6826 0.6568
vt 0.6291 0.6773
vt 0.5937 0.6444
vt 0.5795 0.6831
vt 0.7353 0.6404
vt 0.5301 0.6891
vt 0.5537 0.7264
vt 0.5148 0.7642
vt 0.5518 0.7791
vt 0.8108 0.6731
vt 0.8472 0.7411
vt 0.552 0.8324
vt 0.5876 0.8145
vt 0.6289 0.8622
vt 0.8305 0.8153
vt 0.7666 0.8594
vt 0.6116 0.7917
vt 0.5809 0.7614
vt 0.6095 0.7463
vt 0.5954 0.7136
vt 0.6341 0.7149
vt 0.6333 0.7614
vn 0.7105545 -0.4352013 0.5529124
vn 0.8319321 -0.553871 0.03340448
vn 0.3972674 -0.8418918 0.3652354
vn 0.393912 -0.8841221 -0.2513195
vn -0.03462663 -0.9970502 0.06849786
vn 0.7048373 -0.5070714 -0.4960676
vn 0.9521508 -0.01203039 0.3053918
vn 0.9487833 -0.05431331 -0.3112238
vn 0.9093568 0.4146788 -0.03334191
vn 0.5918569 0.03482554 0.8052903
vn 0.7087127 0.5342935 0.4607135
vn 0.2963795 0.494396 0.8171486
vn 0.2489171 -0.4780504 0.8423231
vn 0.005437041 0.06836818 0.9976453
vn -0.2870481 -0.3780776 0.8801482
vn -0.1890868 -0.8083035 0.5575765
vn 0.2400555 -0.5886875 -0.771894
vn 0.5830137 -0.07582049 -0.8089167
vn -0.005437041 -0.06836818 -0.9976453
vn -0.2963795 -0.494396 -0.8171486
vn 0.2870481 0.3780776 -0.8801482
vn -0.194548 -0.8766393 -0.440062
vn -0.7087127 -0.5342935 -0.4607135
vn -0.5548698 -0.8297797 0.0598755
vn -0.9093568 -0.4146788 0.03334191
vn 0.703247 0.4660117 -0.5369142
vn 0.1890868 0.8083035 -0.5575765
vn 0.5548179 0.8298137 -0.0598865
vn 0.03462663 0.9970502 -0.06849786
vn 0.5548179 0.8298137 -0.0598865
vn 0.1945239 0.8766696 0.4400123
vn -0.393912 0.8841221 0.2513195
vn -0.2400555 0.5886875 0.771894
vn -0.7048373 0.5070714 0.4960676
vn 0.1945239 0.8766696 0.4400123
vn -0.2400555 0.5886875 0.771894
vn -0.5830137 0.07582049 0.8089167
vn -0.9487833 0.05431331 0.3112238
vn -0.703247 -0.4660117 0.5369142
vn -0.5830137 0.07582049 0.8089167
vn -0.703247 -0.4660117 0.5369142
vn -0.9521508 0.01203039 -0.3053918
vn -0.8319321 0.553871 -0.03340448
vn -0.7105545 0.4352013 -0.5529124
vn -0.3972674 0.8418918 -0.3652354
vn -0.2489171 0.4780504 -0.8423231
vn -0.5918569 -0.03482554 -0.8052903
g PAHA00001_02_geo_0
f 3/3/3 2/2/2 1/1/1
f 4/4/4 2/2/2 3/3/3
f 5/5/5 4/4/4 3/3/3
f 4/4/4 6/6/6 2/2/2
f 2/2/2 7/7/7 1/1/1
f 6/6/6 8/8/8 2/2/2
f 8/8/8 7/7/7 2/2/2
f 8/8/8 9/9/9 7/7/7
f 7/7/7 10/10/10 1/1/1
f 9/9/9 11/11/11 7/7/7
f 11/11/11 10/10/10 7/7/7
f 11/11/11 12/12/12 10/10/10
f 10/10/10 13/13/13 1/1/1
f 13/13/13 3/3/3 1/1/1
f 12/12/12 14/14/14 10/10/10
f 14/14/14 13/13/13 10/10/10
f 14/14/14 15/15/15 13/13/13
f 15/15/15 16/16/16 13/13/13
f 16/16/16 3/3/3 13/13/13
f 16/16/16 5/5/5 3/3/3
f 6/6/6 4/4/4 17/17/17
f 17/17/17 18/18/18 6/6/6
f 8/8/8 6/6/6 18/18/18
f 19/19/19 18/18/18 17/17/17
f 20/20/20 19/19/19 17/17/17
f 19/19/19 21/21/21 18/18/18
f 17/17/17 22/22/22 20/20/20
f 23/23/23 20/20/20 22/22/22
f 23/23/23 22/22/22 24/24/24
f 24/24/24 22/22/22 5/5/5
f 5/5/5 16/16/16 24/24/24
f 25/25/25 23/23/23 24/24/24
f 4/4/4 22/22/22 17/17/17
f 4/4/4 5/5/5 22/22/22
f 26/26/26 18/18/18 21/21/21
f 21/21/21 27/27/27 26/26/26
f 27/27/27 28/28/28 26/26/26
f 27/27/27 29/29/29 28/28/28
f 8/8/8 18/18/18 26/26/26
f 9/9/9 8/8/8 26/26/26
f 26/26/26 30/30/30 9/9/9
f 31/31/31 28/28/28 29/29/29
f 29/29/29 32/32/32 31/31/31
f 32/32/32 33/33/33 31/31/31
f 32/32/32 34/34/34 33/33/33
f 11/11/11 9/9/9 30/30/30
f 11/11/11 30/30/30 35/35/35
f 12/12/12 11/11/11 35/35/35
f 35/35/35 36/36/36 12/12/12
f 37/37/37 33/33/33 34/34/34
f 34/34/34 38/38/38 37/37/37
f 38/38/38 39/39/39 37/37/37
f 38/38/38 25/25/25 39/39/39
f 14/14/14 12/12/12 36/36/36
f 14/14/14 36/36/36 40/40/40
f 15/15/15 14/14/14 40/40/40
f 40/40/40 41/41/41 15/15/15
f 24/24/24 39/39/39 25/25/25
f 16/16/16 41/41/41 24/24/24
f 16/16/16 15/15/15 41/41/41
f 25/25/25 38/38/38 42/42/42
f 38/38/38 43/43/43 42/42/42
f 42/42/42 43/43/43 44/44/44
f 43/43/43 45/45/45 44/44/44
f 45/45/45 46/46/46 44/44/44
f 46/46/46 47/47/47 44/44/44
f 47/47/47 42/42/42 44/44/44
f 19/19/19 47/47/47 46/46/46
f 21/21/21 19/19/19 46/46/46
f 19/19/19 20/20/20 47/47/47
f 27/27/27 46/46/46 45/45/45
f 27/27/27 21/21/21 46/46/46
f 29/29/29 27/27/27 45/45/45
f 32/32/32 45/45/45 43/43/43
f 32/32/32 29/29/29 45/45/45
f 34/34/34 32/32/32 43/43/43
f 38/38/38 34/34/34 43/43/43
f 20/20/20 23/23/23 47/47/47
f 23/23/23 42/42/42 47/47/47
f 23/23/23 25/25/25 42/42/42
