g PBS00077_08_geo
v -0.07190958 0.1092324 0.02360209
v -0.07165311 0.1083033 0.02310064
v -0.07212199 0.1090024 0.02415536
v -0.07191186 0.1076406 0.02359625
v -0.07280871 0.1078287 0.02379328
v -0.07276307 0.1088703 0.02418478
v -0.07634144 0.1119102 0.0193025
v -0.07599922 0.1120758 0.01877912
v -0.07566907 0.1110965 0.01831652
v -0.07165311 0.1083033 0.02310064
v -0.07697163 0.1117195 0.01943096
v -0.07704677 0.1106725 0.01905898
v -0.07280871 0.1078287 0.02379328
v -0.1186251 0.1034255 0.01936735
v -0.118635 0.1045124 0.0198856
v -0.1182762 0.1030823 0.02018714
v -0.1183691 0.104426 0.02051565
v -0.1174647 0.1033289 0.02054849
v -0.1174797 0.1042231 0.02068931
v -0.1143358 0.1086015 0.01636724
v -0.1146647 0.1085465 0.01587815
v -0.1148225 0.1074632 0.01528006
v -0.1186251 0.1034255 0.01936735
v -0.1136199 0.1082353 0.01666963
v -0.1134818 0.1073122 0.01664872
v -0.1174647 0.1033289 0.02054849
v 0.07191186 0.1076406 0.02359625
v 0.07165311 0.1083033 0.02310064
v 0.07212199 0.1090024 0.02415536
v 0.07190958 0.1092324 0.02360209
v 0.07280871 0.1078287 0.02379328
v 0.07276307 0.1088703 0.02418478
v 0.07634144 0.1119102 0.0193025
v 0.07599922 0.1120758 0.01877912
v 0.07566907 0.1110965 0.01831652
v 0.07165311 0.1083033 0.02310064
v 0.07697163 0.1117195 0.01943096
v 0.07704677 0.1106725 0.01905898
v 0.07280871 0.1078287 0.02379328
v 0.1186251 0.1034255 0.01936735
v 0.1182762 0.1030823 0.02018714
v 0.118635 0.1045124 0.0198856
v 0.1183691 0.104426 0.02051565
v 0.1174647 0.1033289 0.02054849
v 0.1174797 0.1042231 0.02068931
v 0.1143358 0.1086015 0.01636724
v 0.1146647 0.1085465 0.01587815
v 0.1148225 0.1074632 0.01528006
v 0.1186251 0.1034255 0.01936735
v 0.1136199 0.1082353 0.01666963
v 0.1134818 0.1073122 0.01664872
v 0.1174647 0.1033289 0.02054849
vt 0.1926907 0.02611572
vt 0.1926908 0.01018363
vt 0.185243 0.02611572
vt 0.185243 0.01018354
vt 0.175332 0.01018363
vt 0.175332 0.02611572
vt 0.185243 0.1151062
vt 0.1926908 0.1151062
vt 0.206525 0.1151062
vt 0.206525 0.02611572
vt 0.1753322 0.1151062
vt 0.1631725 0.1151062
vt 0.1631725 0.02611572
vt 0.175332 0.0101836
vt 0.175332 0.02611569
vt 0.185243 0.01018354
vt 0.185243 0.02611569
vt 0.1926908 0.0101836
vt 0.1926908 0.02611569
vt 0.185243 0.1151061
vt 0.175332 0.1151061
vt 0.1631724 0.1151061
vt 0.1631724 0.02611569
vt 0.1926908 0.1151061
vt 0.206525 0.1151061
vt 0.206525 0.02611569
vt 0.185243 0.01018354
vt 0.1926908 0.01018363
vt 0.185243 0.02611572
vt 0.1926907 0.02611572
vt 0.175332 0.01018363
vt 0.175332 0.02611572
vt 0.185243 0.1151062
vt 0.1926908 0.1151062
vt 0.206525 0.1151062
vt 0.206525 0.02611572
vt 0.1753322 0.1151062
vt 0.1631725 0.1151062
vt 0.1631725 0.02611572
vt 0.175332 0.0101836
vt 0.185243 0.01018354
vt 0.175332 0.02611569
vt 0.185243 0.02611569
vt 0.1926908 0.0101836
vt 0.1926908 0.02611569
vt 0.185243 0.1151061
vt 0.175332 0.1151061
vt 0.1631724 0.1151061
vt 0.1631724 0.02611569
vt 0.1926908 0.1151061
vt 0.206525 0.1151061
vt 0.206525 0.02611569
vn 0.6862905 0.7233516 -0.07594623
vn 0.8701996 0.3928327 -0.2973802
vn 0.1451544 0.7121369 0.6868706
vn 0.5591263 -0.2396031 0.7937053
vn -0.6903389 -0.22867 0.6863981
vn -0.6135517 0.2120387 0.7606536
vn 0.01794376 0.8650923 0.5012916
vn 0.6839788 0.7116424 -0.1604309
vn 0.7932421 0.4561683 -0.4033329
vn 0.8701996 0.3928327 -0.2973802
vn -0.6762834 0.1889877 0.7119862
vn -0.7843885 -0.1598814 0.59931
vn -0.6903389 -0.22867 0.6863981
vn -0.8848755 0.1939176 -0.423546
vn -0.850059 0.4906905 -0.1913703
vn -0.6871603 -0.2241194 0.6910726
vn -0.3069906 0.6758106 0.6701021
vn 0.5376441 -0.142277 0.8310813
vn 0.4019912 0.3432558 0.848869
vn -0.217575 0.7888818 0.5747405
vn -0.7910517 0.5772079 -0.2026527
vn -0.8191825 0.3535438 -0.4516048
vn -0.8848755 0.1939176 -0.423546
vn 0.3243587 0.4953425 0.8058705
vn 0.6799257 0.07426792 0.7295104
vn 0.5376441 -0.142277 0.8310813
vn -0.5591267 -0.2396029 0.7937051
vn -0.8701997 0.3928327 -0.2973801
vn -0.1451551 0.7121347 0.6868728
vn -0.6862915 0.7233509 -0.07594408
vn 0.6903384 -0.2286683 0.6863991
vn 0.6135513 0.2120392 0.7606539
vn -0.01794324 0.8650925 0.5012915
vn -0.6839786 0.7116425 -0.1604314
vn -0.7932421 0.4561683 -0.4033329
vn -0.8701997 0.3928327 -0.2973801
vn 0.676284 0.1889914 0.7119847
vn 0.7843904 -0.1598788 0.5993083
vn 0.6903384 -0.2286683 0.6863991
vn 0.8848737 0.1939199 -0.4235489
vn 0.6871605 -0.2241214 0.6910717
vn 0.8500578 0.4906918 -0.1913724
vn 0.3069905 0.6758121 0.6701006
vn -0.5376443 -0.1422777 0.831081
vn -0.4019903 0.3432591 0.8488681
vn 0.2175745 0.7888837 0.574738
vn 0.7910516 0.5772089 -0.2026507
vn 0.8191827 0.3535458 -0.4516027
vn 0.8848737 0.1939199 -0.4235489
vn -0.3243594 0.4953451 0.8058686
vn -0.6799256 0.07426795 0.7295104
vn -0.5376443 -0.1422777 0.831081
g PBS00077_08_geo_0
f 3/3/3 2/2/2 1/1/1
f 3/3/3 4/4/4 2/2/2
f 5/5/5 4/4/4 3/3/3
f 5/5/5 3/3/3 6/6/6
f 7/7/7 3/3/3 1/1/1
f 6/6/6 3/3/3 7/7/7
f 7/7/7 1/1/1 8/8/8
f 1/1/1 9/9/9 8/8/8
f 1/1/1 10/10/10 9/9/9
f 6/6/6 7/7/7 11/11/11
f 12/12/12 6/6/6 11/11/11
f 12/12/12 13/13/13 6/6/6
f 16/16/16 15/15/15 14/14/14
f 16/16/16 17/17/17 15/15/15
f 17/17/17 16/16/16 18/18/18
f 17/17/17 18/18/18 19/19/19
f 15/15/15 17/17/17 20/20/20
f 20/20/20 17/17/17 19/19/19
f 15/15/15 20/20/20 21/21/21
f 22/22/22 15/15/15 21/21/21
f 22/22/22 23/23/23 15/15/15
f 20/20/20 19/19/19 24/24/24
f 19/19/19 25/25/25 24/24/24
f 19/19/19 26/26/26 25/25/25
f 29/29/29 28/28/28 27/27/27
f 29/29/29 30/30/30 28/28/28
f 31/31/31 29/29/29 27/27/27
f 31/31/31 32/32/32 29/29/29
f 30/30/30 29/29/29 33/33/33
f 32/32/32 33/33/33 29/29/29
f 30/30/30 33/33/33 34/34/34
f 30/30/30 34/34/34 35/35/35
f 30/30/30 35/35/35 36/36/36
f 32/32/32 37/37/37 33/33/33
f 32/32/32 38/38/38 37/37/37
f 32/32/32 39/39/39 38/38/38
f 42/42/42 41/41/41 40/40/40
f 42/42/42 43/43/43 41/41/41
f 44/44/44 41/41/41 43/43/43
f 44/44/44 43/43/43 45/45/45
f 42/42/42 46/46/46 43/43/43
f 45/45/45 43/43/43 46/46/46
f 42/42/42 47/47/47 46/46/46
f 42/42/42 48/48/48 47/47/47
f 42/42/42 49/49/49 48/48/48
f 45/45/45 46/46/46 50/50/50
f 45/45/45 50/50/50 51/51/51
f 45/45/45 51/51/51 52/52/52
