g PAHC00025_03_geo
v 0.03473281 1.462876 -0.1492084
v 0.03645112 1.462487 -0.1505971
v 0.03835695 1.461846 -0.1482468
v 0.04030378 1.460106 -0.1499035
v 0.0410047 1.459002 -0.1480798
v 0.03807371 1.460166 -0.152444
v 0.0339691 1.460725 -0.1534668
v 0.03220319 1.462235 -0.1513365
v 0.03473281 1.462876 -0.1492084
v 0.03047182 1.459683 -0.1534443
v 0.03923368 1.459295 -0.1467337
v 0.03538 1.461675 -0.147427
v 0.03473281 1.462876 -0.1492084
v 0.03597159 1.458573 -0.1462192
v 0.03199288 1.459228 -0.1476166
v 0.03156738 1.461753 -0.1494551
v 0.03473281 1.462876 -0.1492084
v 0.02933869 1.458823 -0.1500883
v 0.02922276 1.459675 -0.1518892
v 0.03220319 1.462235 -0.1513365
v 0.03473281 1.462876 -0.1492084
v 0.03047182 1.459683 -0.1534443
v 0.03184731 1.456788 -0.1551912
v 0.02899643 1.456285 -0.1539426
v 0.03116129 1.452672 -0.1548962
v 0.03442366 1.453394 -0.1554108
v 0.03652653 1.45699 -0.1547483
v 0.03840222 1.452739 -0.1540135
v 0.04052391 1.456676 -0.1522892
v 0.04105631 1.453144 -0.1515419
v 0.04203319 1.456162 -0.1495696
v 0.04117258 1.452292 -0.1497413
v 0.04139739 1.455682 -0.1476874
v 0.0399218 1.452286 -0.1481859
v 0.03854651 1.455179 -0.1464376
v 0.03642481 1.451242 -0.1481618
v 0.03386888 1.454976 -0.1468817
v 0.03232027 1.451801 -0.149186
v 0.02987102 1.45529 -0.1493412
v 0.03008984 1.451861 -0.1517255
v 0.02836061 1.455804 -0.1520606
v 0.02939033 1.452965 -0.1535497
v 0.02899643 1.456285 -0.1539426
v 0.03116129 1.452672 -0.1548962
v 0.03203703 1.450121 -0.1533834
v 0.03501408 1.450292 -0.1542029
v 0.03566228 1.449091 -0.1524221
v 0.0339438 1.449481 -0.1510331
v 0.03566228 1.449091 -0.1524221
v 0.03819095 1.449732 -0.1502938
v 0.03566228 1.449091 -0.1524221
v 0.03882679 1.450214 -0.152175
v 0.03566228 1.449091 -0.1524221
v 0.03501408 1.450292 -0.1542029
v 0.03566228 1.449091 -0.1524221
v -0.03694261 1.461031 -0.1493728
v -0.04056674 1.46 -0.1484112
v -0.03866091 1.460642 -0.1507615
v -0.04251355 1.45826 -0.150068
v -0.04321448 1.457157 -0.1482442
v -0.04028353 1.45832 -0.1526085
v -0.03617891 1.458879 -0.1536312
v -0.03441299 1.46039 -0.1515009
v -0.03694261 1.461031 -0.1493728
v -0.03268161 1.457837 -0.1536088
v -0.04144345 1.457449 -0.1468981
v -0.03758978 1.459829 -0.1475915
v -0.03694261 1.461031 -0.1493728
v -0.03818138 1.456727 -0.1463836
v -0.03420266 1.457382 -0.147781
v -0.03377716 1.459908 -0.1496195
v -0.03694261 1.461031 -0.1493728
v -0.03154848 1.456977 -0.1502528
v -0.03143257 1.457829 -0.1520536
v -0.03441299 1.46039 -0.1515009
v -0.03694261 1.461031 -0.1493728
v -0.03268161 1.457837 -0.1536088
v -0.03405708 1.454942 -0.1553556
v -0.03120622 1.45444 -0.1541071
v -0.03337108 1.450826 -0.1550606
v -0.03663345 1.451548 -0.1555752
v -0.03873637 1.455145 -0.1549127
v -0.04061202 1.450894 -0.1541779
v -0.04273371 1.45483 -0.1524536
v -0.04326611 1.451298 -0.1517064
v -0.04424297 1.454317 -0.149734
v -0.04338237 1.450446 -0.1499057
v -0.04360717 1.453836 -0.1478518
v -0.04213162 1.45044 -0.1483504
v -0.04075632 1.453333 -0.146602
v -0.03863459 1.449396 -0.1483263
v -0.03607866 1.453131 -0.1470462
v -0.03453007 1.449955 -0.1493504
v -0.03208082 1.453445 -0.1495056
v -0.03229965 1.450015 -0.15189
v -0.03057041 1.453959 -0.152225
v -0.03160013 1.451119 -0.1537142
v -0.03120622 1.45444 -0.1541071
v -0.03337108 1.450826 -0.1550606
v -0.03424682 1.448276 -0.1535479
v -0.03722387 1.448447 -0.1543674
v -0.03787208 1.447245 -0.1525865
v -0.0361536 1.447635 -0.1511976
v -0.03787208 1.447245 -0.1525865
v -0.04040075 1.447886 -0.1504582
v -0.03787208 1.447245 -0.1525865
v -0.04103659 1.448368 -0.1523394
v -0.03787208 1.447245 -0.1525865
v -0.03722387 1.448447 -0.1543674
v -0.03787208 1.447245 -0.1525865
vt 0.6998181 0.9814365
vt 0.7865217 0.8118407
vt 0.6131145 0.8118407
vt 0.6998181 0.6696922
vt 0.6131145 0.6421485
vt 0.7865217 0.6421485
vt 0.8732254 0.6696922
vt 0.9599289 0.8118407
vt 0.8732254 0.9814365
vt 0.9599289 0.6421485
vt 0.5264109 0.6696922
vt 0.4397074 0.8118407
vt 0.5264109 0.9814365
vt 0.4397074 0.6421485
vt 0.3530037 0.6696922
vt 0.2663002 0.8118407
vt 0.3530037 0.9814365
vt 0.2663002 0.6421485
vt 0.1795965 0.6696922
vt 0.09289295 0.8118407
vt 0.1795965 0.9814365
vt 0.09289295 0.6421485
vt 0.9165772 0.5
vt 1.003281 0.5
vt 0.9599289 0.3303078
vt 0.8732254 0.3578515
vt 0.8298736 0.5
vt 0.7865217 0.3303078
vt 0.7431699 0.5
vt 0.6998181 0.3578515
vt 0.6564664 0.5
vt 0.6131145 0.3303078
vt 0.5697628 0.5
vt 0.5264109 0.3578515
vt 0.4830591 0.5
vt 0.4397074 0.3303078
vt 0.3963555 0.5
vt 0.3530037 0.3578515
vt 0.3096519 0.5
vt 0.2663002 0.3303078
vt 0.2229483 0.5
vt 0.1795965 0.3578515
vt 0.1362447 0.5
vt 0.09289295 0.3303078
vt 0.1795965 0.1881594
vt 0.006189376 0.1881594
vt 0.09289295 0.01856351
vt 0.3530037 0.1881594
vt 0.2663002 0.01856351
vt 0.5264109 0.1881594
vt 0.4397074 0.01856351
vt 0.6998181 0.1881594
vt 0.6131145 0.01856351
vt 0.8732254 0.1881594
vt 0.7865217 0.01856351
vt 0.6998181 0.9814365
vt 0.6131145 0.8118407
vt 0.7865217 0.8118407
vt 0.6998181 0.6696922
vt 0.6131145 0.6421485
vt 0.7865217 0.6421485
vt 0.8732254 0.6696922
vt 0.9599289 0.8118407
vt 0.8732254 0.9814365
vt 0.9599289 0.6421485
vt 0.5264109 0.6696922
vt 0.4397074 0.8118407
vt 0.5264109 0.9814365
vt 0.4397074 0.6421485
vt 0.3530037 0.6696922
vt 0.2663002 0.8118407
vt 0.3530037 0.9814365
vt 0.2663002 0.6421485
vt 0.1795965 0.6696922
vt 0.09289295 0.8118407
vt 0.1795965 0.9814365
vt 0.09289295 0.6421485
vt 0.9165772 0.5
vt 1.003281 0.5
vt 0.9599289 0.3303078
vt 0.8732254 0.3578515
vt 0.8298736 0.5
vt 0.7865217 0.3303078
vt 0.7431699 0.5
vt 0.6998181 0.3578515
vt 0.6564664 0.5
vt 0.6131145 0.3303078
vt 0.5697628 0.5
vt 0.5264109 0.3578515
vt 0.4830591 0.5
vt 0.4397074 0.3303078
vt 0.3963555 0.5
vt 0.3530037 0.3578515
vt 0.3096519 0.5
vt 0.2663002 0.3303078
vt 0.2229483 0.5
vt 0.1795965 0.3578515
vt 0.1362447 0.5
vt 0.09289295 0.3303078
vt 0.1795965 0.1881594
vt 0.006189376 0.1881594
vt 0.09289295 0.01856351
vt 0.3530037 0.1881594
vt 0.2663002 0.01856351
vt 0.5264109 0.1881594
vt 0.4397074 0.01856351
vt 0.6998181 0.1881594
vt 0.6131145 0.01856351
vt 0.8732254 0.1881594
vt 0.7865217 0.01856351
vn -0.08271342 0.9717606 0.2209973
vn 0.2888834 0.8688773 -0.4019933
vn 0.4426272 0.8213124 0.3598987
vn 0.7417381 0.5891151 -0.3205744
vn 0.8273854 0.409712 0.3841477
vn 0.4623564 0.5448184 -0.6995709
vn 0.06278169 0.5972217 -0.7996153
vn -0.2806969 0.8847857 -0.3719726
vn -0.08271342 0.9717606 0.2209973
vn -0.3942822 0.5386374 -0.744588
vn 0.3281504 0.2758875 0.9034398
vn -0.1248232 0.5556771 0.8219745
vn -0.08271342 0.9717606 0.2209973
vn -0.1078432 0.1130418 0.9877203
vn -0.4949285 0.174797 0.8511708
vn -0.5691577 0.6662277 0.4818715
vn -0.08271342 0.9717606 0.2209973
vn -0.8234215 0.2135655 0.5257061
vn -0.84104 0.5194806 -0.150969
vn -0.2806969 0.8847857 -0.3719726
vn -0.08271342 0.9717606 0.2209973
vn -0.3942822 0.5386374 -0.744588
vn -0.141436 0.2183716 -0.9655619
vn -0.6955367 0.1150216 -0.709224
vn -0.3281347 -0.2757878 -0.9034759
vn 0.107771 -0.1129651 -0.9877369
vn 0.3110147 0.2357004 -0.9207145
vn 0.4949069 -0.1748968 -0.8511629
vn 0.6992306 0.2042543 -0.6850962
vn 0.8234411 -0.2135694 -0.5256736
vn 0.9840615 0.1035371 -0.1445787
vn 0.8409372 -0.5195507 0.1513
vn 0.6956193 -0.1150897 0.709132
vn 0.3944135 -0.5386379 0.7445181
vn 0.1415159 -0.2183283 0.96556
vn -0.06277019 -0.5973415 0.7995268
vn -0.3111677 -0.2355832 0.9206928
vn -0.4623718 -0.5448335 0.699549
vn -0.6991428 -0.2041105 0.6852286
vn -0.7417246 -0.5891377 0.3205642
vn -0.9840549 -0.1034175 0.1447092
vn -0.8272671 -0.4097371 -0.3843756
vn -0.6955367 0.1150216 -0.709224
vn -0.3281347 -0.2757878 -0.9034759
vn -0.4426155 -0.8214069 -0.3596975
vn 0.1247903 -0.5556558 -0.8219939
vn 0.08263866 -0.9717968 -0.2208663
vn -0.2888123 -0.8689343 0.4019212
vn 0.08263866 -0.9717968 -0.2208663
vn 0.2806707 -0.8848146 0.3719236
vn 0.08263866 -0.9717968 -0.2208663
vn 0.5690838 -0.6662561 -0.4819196
vn 0.08263866 -0.9717968 -0.2208663
vn 0.1247903 -0.5556558 -0.8219939
vn 0.08263866 -0.9717968 -0.2208663
vn 0.08271593 0.9717624 0.2209884
vn -0.4426268 0.8213098 0.3599051
vn -0.2888779 0.8688735 -0.4020056
vn -0.7417336 0.5891151 -0.320585
vn -0.827386 0.4097155 0.3841427
vn -0.462349 0.5448184 -0.6995758
vn -0.06277994 0.5972256 -0.7996126
vn 0.2806956 0.8847976 -0.371945
vn 0.08271593 0.9717624 0.2209884
vn 0.3942752 0.5386329 -0.7445949
vn -0.3281518 0.2758931 0.9034375
vn 0.1248296 0.5556673 0.8219802
vn 0.08271593 0.9717624 0.2209884
vn 0.1078516 0.1130376 0.9877199
vn 0.4949245 0.1747942 0.8511737
vn 0.5691444 0.6662029 0.4819214
vn 0.08271593 0.9717624 0.2209884
vn 0.8234279 0.2135655 0.525696
vn 0.8410384 0.5194762 -0.1509927
vn 0.2806956 0.8847976 -0.371945
vn 0.08271593 0.9717624 0.2209884
vn 0.3942752 0.5386329 -0.7445949
vn 0.1414367 0.2183694 -0.9655623
vn 0.6955407 0.1150232 -0.7092199
vn 0.3281273 -0.2757818 -0.9034805
vn -0.1077682 -0.1129642 -0.9877374
vn -0.3110146 0.2356997 -0.9207147
vn -0.4949207 -0.1749111 -0.8511519
vn -0.6992316 0.2042508 -0.6850962
vn -0.823435 -0.213572 -0.5256823
vn -0.9840627 0.1035364 -0.1445715
vn -0.8409406 -0.5195493 0.1512857
vn -0.6956207 -0.1150919 0.7091302
vn -0.394421 -0.5386425 0.7445108
vn -0.1415139 -0.218334 0.9655589
vn 0.06276995 -0.5973473 0.7995225
vn 0.3111645 -0.2355788 0.9206951
vn 0.4623777 -0.5448422 0.6995384
vn 0.6991429 -0.2041103 0.6852286
vn 0.7417269 -0.5891396 0.3205552
vn 0.9840558 -0.1034197 0.1447016
vn 0.8272671 -0.4097372 -0.3843756
vn 0.6955407 0.1150232 -0.7092199
vn 0.3281273 -0.2757818 -0.9034805
vn 0.442616 -0.8214135 -0.3596816
vn -0.1247979 -0.5556573 -0.8219918
vn -0.08264019 -0.971791 -0.2208912
vn 0.2888138 -0.8689379 0.4019123
vn -0.08264019 -0.971791 -0.2208912
vn -0.2806683 -0.8848096 0.3719372
vn -0.08264019 -0.971791 -0.2208912
vn -0.5691004 -0.666266 -0.4818862
vn -0.08264019 -0.971791 -0.2208912
vn -0.1247979 -0.5556573 -0.8219918
vn -0.08264019 -0.971791 -0.2208912
g PAHC00025_03_geo_0
f 3/3/3 2/2/2 1/1/1
f 4/4/4 2/2/2 3/3/3
f 5/5/5 4/4/4 3/3/3
f 4/4/4 6/6/6 2/2/2
f 6/6/6 7/7/7 2/2/2
f 7/7/7 8/8/8 2/2/2
f 2/2/2 8/8/8 9/9/9
f 7/7/7 10/10/10 8/8/8
f 11/11/11 5/5/5 3/3/3
f 11/11/11 3/3/3 12/12/12
f 12/12/12 3/3/3 13/13/13
f 14/14/14 11/11/11 12/12/12
f 15/15/15 14/14/14 12/12/12
f 15/15/15 12/12/12 16/16/16
f 16/16/16 12/12/12 17/17/17
f 18/18/18 15/15/15 16/16/16
f 19/19/19 18/18/18 16/16/16
f 19/19/19 16/16/16 20/20/20
f 20/20/20 16/16/16 21/21/21
f 22/22/22 19/19/19 20/20/20
f 10/10/10 7/7/7 23/23/23
f 23/23/23 24/24/24 10/10/10
f 25/25/25 24/24/24 23/23/23
f 26/26/26 25/25/25 23/23/23
f 23/23/23 27/27/27 26/26/26
f 7/7/7 27/27/27 23/23/23
f 28/28/28 26/26/26 27/27/27
f 28/28/28 27/27/27 29/29/29
f 29/29/29 27/27/27 6/6/6
f 7/7/7 6/6/6 27/27/27
f 30/30/30 28/28/28 29/29/29
f 29/29/29 31/31/31 30/30/30
f 32/32/32 30/30/30 31/31/31
f 32/32/32 31/31/31 33/33/33
f 33/33/33 31/31/31 5/5/5
f 34/34/34 32/32/32 33/33/33
f 6/6/6 4/4/4 29/29/29
f 4/4/4 31/31/31 29/29/29
f 4/4/4 5/5/5 31/31/31
f 33/33/33 35/35/35 34/34/34
f 36/36/36 34/34/34 35/35/35
f 36/36/36 35/35/35 37/37/37
f 37/37/37 35/35/35 14/14/14
f 38/38/38 36/36/36 37/37/37
f 37/37/37 39/39/39 38/38/38
f 40/40/40 38/38/38 39/39/39
f 40/40/40 39/39/39 41/41/41
f 41/41/41 39/39/39 18/18/18
f 42/42/42 40/40/40 41/41/41
f 41/41/41 43/43/43 42/42/42
f 44/44/44 42/42/42 43/43/43
f 18/18/18 19/19/19 41/41/41
f 19/19/19 43/43/43 41/41/41
f 19/19/19 22/22/22 43/43/43
f 14/14/14 15/15/15 37/37/37
f 15/15/15 39/39/39 37/37/37
f 15/15/15 18/18/18 39/39/39
f 11/11/11 14/14/14 35/35/35
f 11/11/11 35/35/35 33/33/33
f 5/5/5 11/11/11 33/33/33
f 42/42/42 44/44/44 45/45/45
f 40/40/40 42/42/42 45/45/45
f 44/44/44 46/46/46 45/45/45
f 45/45/45 46/46/46 47/47/47
f 40/40/40 45/45/45 48/48/48
f 48/48/48 45/45/45 49/49/49
f 38/38/38 40/40/40 48/48/48
f 36/36/36 38/38/38 48/48/48
f 36/36/36 48/48/48 50/50/50
f 50/50/50 48/48/48 51/51/51
f 34/34/34 36/36/36 50/50/50
f 32/32/32 34/34/34 50/50/50
f 32/32/32 50/50/50 52/52/52
f 52/52/52 50/50/50 53/53/53
f 30/30/30 32/32/32 52/52/52
f 28/28/28 30/30/30 52/52/52
f 28/28/28 52/52/52 54/54/54
f 54/54/54 52/52/52 55/55/55
f 26/26/26 28/28/28 54/54/54
f 25/25/25 26/26/26 54/54/54
f 58/58/58 57/57/57 56/56/56
f 58/58/58 59/59/59 57/57/57
f 59/59/59 60/60/60 57/57/57
f 61/61/61 59/59/59 58/58/58
f 62/62/62 61/61/61 58/58/58
f 63/63/63 62/62/62 58/58/58
f 63/63/63 58/58/58 64/64/64
f 65/65/65 62/62/62 63/63/63
f 60/60/60 66/66/66 57/57/57
f 57/57/57 66/66/66 67/67/67
f 57/57/57 67/67/67 68/68/68
f 66/66/66 69/69/69 67/67/67
f 69/69/69 70/70/70 67/67/67
f 67/67/67 70/70/70 71/71/71
f 67/67/67 71/71/71 72/72/72
f 70/70/70 73/73/73 71/71/71
f 73/73/73 74/74/74 71/71/71
f 71/71/71 74/74/74 75/75/75
f 71/71/71 75/75/75 76/76/76
f 74/74/74 77/77/77 75/75/75
f 62/62/62 65/65/65 78/78/78
f 79/79/79 78/78/78 65/65/65
f 79/79/79 80/80/80 78/78/78
f 80/80/80 81/81/81 78/78/78
f 82/82/82 78/78/78 81/81/81
f 82/82/82 62/62/62 78/78/78
f 81/81/81 83/83/83 82/82/82
f 82/82/82 83/83/83 84/84/84
f 82/82/82 84/84/84 61/61/61
f 61/61/61 62/62/62 82/82/82
f 83/83/83 85/85/85 84/84/84
f 86/86/86 84/84/84 85/85/85
f 85/85/85 87/87/87 86/86/86
f 86/86/86 87/87/87 88/88/88
f 86/86/86 88/88/88 60/60/60
f 87/87/87 89/89/89 88/88/88
f 59/59/59 61/61/61 84/84/84
f 86/86/86 59/59/59 84/84/84
f 60/60/60 59/59/59 86/86/86
f 90/90/90 88/88/88 89/89/89
f 89/89/89 91/91/91 90/90/90
f 90/90/90 91/91/91 92/92/92
f 90/90/90 92/92/92 69/69/69
f 91/91/91 93/93/93 92/92/92
f 94/94/94 92/92/92 93/93/93
f 93/93/93 95/95/95 94/94/94
f 94/94/94 95/95/95 96/96/96
f 94/94/94 96/96/96 73/73/73
f 95/95/95 97/97/97 96/96/96
f 98/98/98 96/96/96 97/97/97
f 97/97/97 99/99/99 98/98/98
f 74/74/74 73/73/73 96/96/96
f 98/98/98 74/74/74 96/96/96
f 77/77/77 74/74/74 98/98/98
f 70/70/70 69/69/69 92/92/92
f 94/94/94 70/70/70 92/92/92
f 73/73/73 70/70/70 94/94/94
f 69/69/69 66/66/66 90/90/90
f 90/90/90 66/66/66 88/88/88
f 66/66/66 60/60/60 88/88/88
f 99/99/99 97/97/97 100/100/100
f 97/97/97 95/95/95 100/100/100
f 101/101/101 99/99/99 100/100/100
f 101/101/101 100/100/100 102/102/102
f 100/100/100 95/95/95 103/103/103
f 100/100/100 103/103/103 104/104/104
f 95/95/95 93/93/93 103/103/103
f 93/93/93 91/91/91 103/103/103
f 103/103/103 91/91/91 105/105/105
f 103/103/103 105/105/105 106/106/106
f 91/91/91 89/89/89 105/105/105
f 89/89/89 87/87/87 105/105/105
f 105/105/105 87/87/87 107/107/107
f 105/105/105 107/107/107 108/108/108
f 87/87/87 85/85/85 107/107/107
f 85/85/85 83/83/83 107/107/107
f 107/107/107 83/83/83 109/109/109
f 107/107/107 109/109/109 110/110/110
f 83/83/83 81/81/81 109/109/109
f 81/81/81 80/80/80 109/109/109
