g PAHE00036_01_geo
v 0.07753561 1.480335 0.0004018688
v 0.0770309 1.487958 0.002181561
v 0.07909366 1.482428 -0.005089124
v 0.07793368 1.489652 -0.001000034
v 0.07594303 1.480548 0.00601483
v 0.07606283 1.487221 0.005593403
v 0.07510144 1.486904 0.008981699
v 0.07457648 1.481858 0.01083128
v 0.07864795 1.491751 -0.003517164
v 0.08032932 1.48599 -0.009443685
v 0.07928578 1.494211 -0.005764864
v 0.08116031 1.490201 -0.01237197
v 0.08168443 1.496002 -0.01421848
v 0.07987747 1.498151 -0.007849766
v 0.08167458 1.502159 -0.01418305
v 0.08036252 1.5029 -0.009558694
v 0.08123577 1.507488 -0.01263586
v 0.08045409 1.506404 -0.009880998
v 0.08033018 1.512198 -0.009443636
v 0.07414007 1.487066 0.01236994
v 0.07368609 1.483599 0.01396959
v 0.07307736 1.485575 0.01611526
v 0.07337153 1.487725 0.01507872
v 0.07238114 1.488851 0.0185694
vt 1.025649 -1.239308
vt 0.6853783 -0.4168902
vt 1.629072 -0.9050974
vt 1.026627 -0.1692953
vt 0.3678028 -1.317083
vt 0.3006021 -0.561272
vt -0.0887328 -0.6582515
vt -0.216334 -1.257471
vt 1.283388 0.1116204
vt 2.074467 -0.4268744
vt 1.50246 0.4281165
vt 2.342338 0.09824828
vt 2.456416 0.7820929
vt 1.676752 0.9076729
vt 2.344975 1.471725
vt 1.793145 1.471005
vt 2.071778 2.041197
vt 1.769626 1.86974
vt 1.617662 2.511448
vt -0.4864133 -0.7015135
vt -0.6124072 -1.119184
vt -0.8969121 -0.9364594
vt -0.8135873 -0.676636
vt -1.240008 -0.6136698
vn 0.9620265 -3.216133E-05 0.2729562
vn 0.9620267 -3.047757E-05 0.2729552
vn 0.9620251 -3.213062E-05 0.2729609
vn 0.962025 -3.005145E-05 0.2729615
vn 0.962026 -3.080286E-05 0.2729579
vn 0.9620264 -3.281332E-05 0.2729564
vn 0.9620249 -3.194271E-05 0.2729616
vn 0.962025 -3.120345E-05 0.2729615
vn 0.962025 -3.24334E-05 0.2729612
vn 0.962025 -3.118681E-05 0.2729611
vn 0.962026 -3.13677E-05 0.2729578
vn 0.9620259 -3.245012E-05 0.2729584
vn 0.9620255 -3.265133E-05 0.2729597
vn 0.9620253 -2.990859E-05 0.2729603
vn 0.9620271 -3.302218E-05 0.2729539
vn 0.9620264 -3.328129E-05 0.2729564
vn 0.9620276 -3.296696E-05 0.2729521
vn 0.9620243 -3.3395E-05 0.2729638
vn 0.9620262 -2.965302E-05 0.2729571
vn 0.9620247 -3.210023E-05 0.2729622
vn 0.9620216 -3.148407E-05 0.2729731
vn 0.9620255 -2.915107E-05 0.2729595
vn 0.9620327 -3.038336E-05 0.2729344
vn 0.9620256 -2.90945E-05 0.2729593
g PAHE00036_01_geo_0
f 3/3/3 2/2/2 1/1/1
f 3/3/3 4/4/4 2/2/2
f 2/2/2 5/5/5 1/1/1
f 2/2/2 6/6/6 5/5/5
f 5/5/5 6/6/6 7/7/7
f 5/5/5 7/7/7 8/8/8
f 9/9/9 4/4/4 3/3/3
f 9/9/9 3/3/3 10/10/10
f 10/10/10 11/11/11 9/9/9
f 10/10/10 12/12/12 11/11/11
f 11/11/11 12/12/12 13/13/13
f 11/11/11 13/13/13 14/14/14
f 14/14/14 13/13/13 15/15/15
f 14/14/14 15/15/15 16/16/16
f 17/17/17 16/16/16 15/15/15
f 17/17/17 18/18/18 16/16/16
f 17/17/17 19/19/19 18/18/18
f 20/20/20 8/8/8 7/7/7
f 20/20/20 21/21/21 8/8/8
f 20/20/20 22/22/22 21/21/21
f 20/20/20 23/23/23 22/22/22
f 23/23/23 24/24/24 22/22/22
