g PAHE00007_03_geo
v -0.05369798 0.002287974 0.0002906641
v -0.05370302 0.000250659 0.0002890381
v -0.05518672 0.0008749986 0.002326163
v -0.05518842 0.0002531004 0.002325662
v -0.06949601 0.005936889 0.0002624974
v -0.06952127 0.003083417 0.003416108
v -0.07438277 0.002056057 0.003091253
v -0.07847291 0.003830969 0.0002431759
v -0.06957065 0.0003077507 0.003890384
v -0.08034503 0.0003366733 0.002501315
v -0.08582916 0.0003527999 0.0002259526
v -0.05518998 -0.0003690743 0.002325161
v -0.05370841 -0.00178647 0.0002874026
v -0.0743916 -0.001414299 0.003088478
v -0.06953578 -0.002467456 0.003411673
v -0.06952498 -0.005315745 0.0002535042
v -0.07849105 -0.003163245 0.0002375874
v -0.03724712 0.01899975 -0.00264351
v -0.03797098 0.02060053 -0.000661427
v -0.03676742 0.02104987 -0.002324182
v -0.03786849 0.02103785 -0.0005932918
v -0.04712158 0.02308696 0.0001530013
v -0.04741135 0.02171566 -0.0003042713
v -0.04774234 0.02000288 -0.003128621
v -0.04916545 0.0226144 -0.0005605474
v -0.05234434 0.02449253 -0.001023556
v -0.05122168 0.02192078 -0.003064672
v -0.05657483 0.0257653 -0.002839557
v -0.03776618 0.02147559 -0.0005251041
v -0.03628766 0.02309985 -0.002004839
v -0.05008239 0.02678975 -0.002306234
v -0.04867572 0.02458513 -0.0002468505
v -0.04611991 0.02693603 -0.002048661
v -0.04675625 0.02451509 0.0001317915
v -0.03765645 0.02154081 -0.00414076
v -0.03775894 0.02110349 -0.00420889
v -0.03676545 0.02105478 -0.002358042
v -0.03724514 0.01900466 -0.002677366
v -0.04679171 0.02386935 -0.005365544
v -0.0471102 0.02243018 -0.005343076
v -0.04774037 0.02000779 -0.003162481
v -0.04889685 0.0232516 -0.005054561
v -0.05213866 0.02498024 -0.004463965
v -0.0512197 0.0219257 -0.003098532
v -0.05657285 0.02577021 -0.002873417
v -0.03755415 0.02197854 -0.004072563
v -0.03628569 0.02310476 -0.0020387
v -0.05008042 0.02679466 -0.002340094
v -0.04840647 0.02522358 -0.004750711
v -0.04611794 0.02694094 -0.002082521
v -0.04645512 0.02522961 -0.004907009
v -0.05369674 0.002732289 0.0002910122
v -0.05517865 0.0009343743 -0.001752869
v -0.05370302 0.000250659 0.0002890334
v -0.05518039 0.0002563429 -0.001753413
v -0.06949601 0.005936885 0.0002624879
v -0.06950886 0.003088431 -0.002895724
v -0.0743716 0.002060566 -0.002591616
v -0.07847292 0.003830967 0.0002431664
v -0.06955637 0.000313518 -0.003374607
v -0.08033612 0.000340271 -0.002027866
v -0.08582917 0.0003527975 0.000225943
v -0.05518211 -0.0004216814 -0.001753952
v -0.05370966 -0.002230794 0.0002870497
v -0.07438044 -0.00140979 -0.002594387
v -0.06952336 -0.002462447 -0.002900163
v -0.06952498 -0.005315745 0.0002534995
v -0.07849105 -0.003163249 0.0002375779
vt 0.340444 0.02590381
vt 0.2834459 0.01942857
vt 0.2963241 0.06170912
vt 0.2834459 0.0617142
vt 0.3940119 0.2942681
vt 0.3240653 0.2935983
vt 0.3104344 0.3439369
vt 0.3523942 0.4190568
vt 0.2834459 0.2947349
vt 0.2834459 0.4332752
vt 0.2834459 0.552512
vt 0.2705677 0.06170912
vt 0.2264476 0.02590381
vt 0.2564573 0.3439369
vt 0.2428263 0.2935983
vt 0.1728797 0.2942681
vt 0.2144975 0.4190568
vt 0.2240194 0.6238004
vt 0.2622565 0.6514611
vt 0.2734839 0.6166902
vt 0.2734839 0.6514735
vt 0.2734839 0.8057728
vt 0.2390154 0.8043972
vt 0.1768984 0.804864
vt 0.2493511 0.8369066
vt 0.2734839 0.8967036
vt 0.2045605 0.8775623
vt 0.2734839 0.9791757
vt 0.2847161 0.6514583
vt 0.3229462 0.6237867
vt 0.3424515 0.8775737
vt 0.2978392 0.8364428
vt 0.3701079 0.8048376
vt 0.3079944 0.8043931
vt 0.2734839 0.6514735
vt 0.2622565 0.6514611
vt 0.2734839 0.6166902
vt 0.2240194 0.6238004
vt 0.2734839 0.8057728
vt 0.2390154 0.8043972
vt 0.1768984 0.804864
vt 0.2493511 0.8369066
vt 0.2734839 0.8967036
vt 0.2045605 0.8775623
vt 0.2734839 0.9791757
vt 0.2847161 0.6514583
vt 0.3229462 0.6237867
vt 0.3424515 0.8775737
vt 0.2978392 0.8364428
vt 0.3701079 0.8048376
vt 0.3079944 0.8043931
vt 0.340444 0.02590381
vt 0.2963241 0.06170912
vt 0.2834459 0.01942857
vt 0.2834459 0.0617142
vt 0.3940119 0.2942681
vt 0.3240653 0.2935983
vt 0.3104344 0.3439369
vt 0.3523942 0.4190568
vt 0.2834459 0.2947349
vt 0.2834459 0.4332752
vt 0.2834459 0.552512
vt 0.2705677 0.06170912
vt 0.2264476 0.02590381
vt 0.2564573 0.3439369
vt 0.2428263 0.2935983
vt 0.1728797 0.2942681
vt 0.2144975 0.4190568
vn 0.2437859 0.7040295 0.6670164
vn 0.807957 -0.002544219 0.589236
vn 0.202269 0.6264777 0.7527369
vn 0.221317 -0.001365098 0.975201
vn 0.05628547 0.7373487 0.6731633
vn 0.06664722 0.5574363 0.8275403
vn -0.1740183 0.5050519 0.845364
vn -0.2341357 0.6540393 0.7193142
vn 0.04292559 -0.0008065046 0.9990779
vn -0.3428298 0.0001277247 0.9393975
vn -0.3832237 0.0002848146 0.9236555
vn 0.1976704 -0.6294733 0.7514584
vn 0.2388252 -0.7071496 0.6655087
vn -0.1766379 -0.5055194 0.8445408
vn 0.06263904 -0.5588732 0.826884
vn 0.05123046 -0.7388169 0.6719562
vn -0.2375197 -0.654 0.7182397
vn -0.01027099 -0.7797547 0.6260009
vn -0.01279743 -0.734936 0.6780158
vn 0.8130975 -0.2705624 0.5154305
vn 0.1918568 -0.194754 0.9619053
vn -0.02383484 -0.148473 0.9886292
vn -0.1228492 -0.7189506 0.6841186
vn -0.1620895 -0.826427 0.5392081
vn -0.4016047 -0.5825809 0.706621
vn -0.4053081 -0.04648334 0.9129976
vn -0.4430851 -0.6944554 0.566928
vn -0.405975 -0.04719513 0.9126647
vn 0.261485 0.4370842 0.8605714
vn 0.2867399 0.4893211 0.823617
vn -0.1356467 0.621625 0.7714806
vn -0.1558915 0.4670105 0.8704017
vn 0.1765836 0.6201367 0.7643616
vn 0.1562053 0.469071 0.8692366
vn 0.3060809 0.07620537 -0.9489506
vn 0.07863926 -0.5180675 -0.8517171
vn 0.8721042 -0.1306259 -0.4715625
vn 0.075816 -0.5755836 -0.8142208
vn 0.09425125 0.1316057 -0.9868113
vn -0.03020138 -0.4991921 -0.8659649
vn -0.08430985 -0.6419246 -0.7621185
vn -0.3066359 -0.3573306 -0.8822071
vn -0.2950806 0.2149532 -0.9309794
vn -0.3622914 -0.5028155 -0.7848067
vn -0.2957574 0.2142352 -0.9309301
vn 0.3529183 0.6539558 -0.6691715
vn 0.3728037 0.6934901 -0.6165133
vn -0.05489559 0.8131317 -0.5794853
vn -0.06090339 0.6923361 -0.7190003
vn 0.2543449 0.8045801 -0.5366186
vn 0.2488568 0.6888398 -0.6808598
vn 0.2138386 0.6513585 -0.7280146
vn 0.1902282 0.5780396 -0.793526
vn 0.8102584 -0.001636578 -0.5860705
vn 0.2251609 0.0002040159 -0.9743216
vn 0.05618502 0.7344248 -0.6763605
vn 0.0682392 0.5584102 -0.8267536
vn -0.1706943 0.5063957 -0.8452377
vn -0.2313072 0.6551812 -0.7191902
vn 0.0463274 0.0007801524 -0.998926
vn -0.3391329 0.001620993 -0.9407371
vn -0.3795885 0.001752008 -0.9251538
vn 0.1859646 -0.5784265 -0.7942543
vn 0.2092171 -0.651957 -0.7288212
vn -0.1733139 -0.504179 -0.8460295
vn 0.06424339 -0.5572114 -0.8278818
vn 0.05116229 -0.7337347 -0.677507
vn -0.2346915 -0.6528574 -0.7202064
g PAHE00007_03_geo_0
f 3/3/3 2/2/2 1/1/1
f 3/3/3 4/4/4 2/2/2
f 3/3/3 1/1/1 5/5/5
f 3/3/3 5/5/5 6/6/6
f 5/5/5 7/7/7 6/6/6
f 5/5/5 8/8/8 7/7/7
f 6/6/6 7/7/7 9/9/9
f 3/3/3 9/9/9 4/4/4
f 3/3/3 6/6/6 9/9/9
f 10/10/10 9/9/9 7/7/7
f 8/8/8 10/10/10 7/7/7
f 8/8/8 11/11/11 10/10/10
f 12/12/12 2/2/2 4/4/4
f 9/9/9 12/12/12 4/4/4
f 12/12/12 13/13/13 2/2/2
f 9/9/9 10/10/10 14/14/14
f 14/14/14 15/15/15 9/9/9
f 9/9/9 15/15/15 12/12/12
f 12/12/12 16/16/16 13/13/13
f 12/12/12 15/15/15 16/16/16
f 16/16/16 15/15/15 14/14/14
f 16/16/16 14/14/14 17/17/17
f 17/17/17 10/10/10 11/11/11
f 17/17/17 14/14/14 10/10/10
f 20/20/20 19/19/19 18/18/18
f 20/20/20 21/21/21 19/19/19
f 22/22/22 19/19/19 21/21/21
f 22/22/22 23/23/23 19/19/19
f 19/19/19 24/24/24 18/18/18
f 19/19/19 23/23/23 24/24/24
f 25/25/25 24/24/24 23/23/23
f 25/25/25 23/23/23 22/22/22
f 25/25/25 22/22/22 26/26/26
f 25/25/25 27/27/27 24/24/24
f 27/27/27 25/25/25 26/26/26
f 27/27/27 26/26/26 28/28/28
f 20/20/20 29/29/29 21/21/21
f 22/22/22 21/21/21 29/29/29
f 20/20/20 30/30/30 29/29/29
f 26/26/26 31/31/31 28/28/28
f 26/26/26 32/32/32 31/31/31
f 26/26/26 22/22/22 32/32/32
f 33/33/33 31/31/31 32/32/32
f 33/33/33 29/29/29 30/30/30
f 33/33/33 32/32/32 34/34/34
f 33/33/33 34/34/34 29/29/29
f 22/22/22 29/29/29 34/34/34
f 22/22/22 34/34/34 32/32/32
f 37/37/37 36/36/36 35/35/35
f 37/37/37 38/38/38 36/36/36
f 39/39/39 35/35/35 36/36/36
f 39/39/39 36/36/36 40/40/40
f 36/36/36 41/41/41 40/40/40
f 36/36/36 38/38/38 41/41/41
f 41/41/41 42/42/42 40/40/40
f 40/40/40 42/42/42 39/39/39
f 39/39/39 42/42/42 43/43/43
f 41/41/41 44/44/44 42/42/42
f 43/43/43 42/42/42 44/44/44
f 43/43/43 44/44/44 45/45/45
f 37/37/37 35/35/35 46/46/46
f 39/39/39 46/46/46 35/35/35
f 37/37/37 46/46/46 47/47/47
f 48/48/48 43/43/43 45/45/45
f 48/48/48 49/49/49 43/43/43
f 39/39/39 43/43/43 49/49/49
f 50/50/50 49/49/49 48/48/48
f 46/46/46 50/50/50 47/47/47
f 50/50/50 51/51/51 49/49/49
f 46/46/46 51/51/51 50/50/50
f 39/39/39 51/51/51 46/46/46
f 51/51/51 39/39/39 49/49/49
f 54/54/54 53/53/53 52/52/52
f 54/54/54 55/55/55 53/53/53
f 56/56/56 52/52/52 53/53/53
f 56/56/56 53/53/53 57/57/57
f 56/56/56 57/57/57 58/58/58
f 56/56/56 58/58/58 59/59/59
f 58/58/58 57/57/57 60/60/60
f 60/60/60 53/53/53 55/55/55
f 60/60/60 57/57/57 53/53/53
f 60/60/60 61/61/61 58/58/58
f 59/59/59 58/58/58 61/61/61
f 59/59/59 61/61/61 62/62/62
f 63/63/63 55/55/55 54/54/54
f 60/60/60 55/55/55 63/63/63
f 63/63/63 54/54/54 64/64/64
f 61/61/61 60/60/60 65/65/65
f 66/66/66 65/65/65 60/60/60
f 60/60/60 63/63/63 66/66/66
f 63/63/63 67/67/67 66/66/66
f 63/63/63 64/64/64 67/67/67
f 65/65/65 66/66/66 67/67/67
f 65/65/65 67/67/67 68/68/68
f 68/68/68 61/61/61 65/65/65
f 68/68/68 62/62/62 61/61/61
